<?xml version="1.0" encoding="utf-8"?>
<!-- Generator: Adobe Illustrator 19.0.0, SVG Export Plug-In . SVG Version: 6.00 Build 0)  -->
<svg version="1.1" xmlns="http://www.w3.org/2000/svg" xmlns:xlink="http://www.w3.org/1999/xlink" x="0px" y="0px"
	 viewBox="-200 -200 1400 767.5" style="enable-background:new -4 -156.5 949.8 767.5;" xml:space="preserve">
<style type="text/css">
	.st0{fill:#0B6EDE;}
	.st1{fill:#0A68D3;}
	.st2{fill:none;stroke:#CED2DF;stroke-width:3;stroke-miterlimit:10;}
	.st3{fill:none;stroke:#B2B2B2;stroke-width:3;stroke-miterlimit:10;}
	.st4{opacity:0.1;fill:#0B6EDE;enable-background:new    ;}
	.st5{fill:url(#SVGID_1_);}
	.st6{fill:#444176;}
	.st7{opacity:0.1;enable-background:new    ;}
	.st8{fill:#565387;}
	.st9{opacity:0.1;}
	.st10{fill:#CED2DF;}
	.st11{fill:#88455E;}
	.st12{fill:#F6B9AD;}
	.st13{fill:#EBF1F6;}
	.st14{fill:url(#SVGID_2_);}
	.st15{fill:url(#SVGID_3_);}
	.st16{fill:#FFBDC6;}
	.st17{fill:#7679B4;}
	.st18{fill:#A66477;}
	.st19{fill:#62D397;}
	.st20{fill:#F2F1F2;}
	.st21{fill:#565388;}
	.st22{fill:url(#SVGID_4_);}
	.st23{fill:#493545;}
	.st24{opacity:5.000000e-002;enable-background:new    ;}
	.st25{fill:#3E3D77;}
	.st26{fill:#C77485;}
	.st27{fill:#FFAAC4;}
	.st28{display:none;}
	.st29{display:inline;fill:none;stroke:#CED2DF;stroke-width:3;stroke-miterlimit:10;}
</style>
<g id="Layer_3">
	<circle class="st0" cx="374.1" cy="41.5" r="190.5"/>
	<circle class="st1" cx="438.1" cy="11.1" r="61.5"/>
	<circle class="st1" cx="300.1" cy="-47.4" r="27"/>
	<circle class="st1" cx="295.6" cy="150.6" r="27"/>
	<path class="st2" d="M221.5-82c0,0-21,3.6-37.5,13.2c-10.8,6.3-18.4,16.3-21.5,25.8c-5.2,15.8,2.2,37.5,2.2,37.5
		s4.5,13.6,15.5,28.3c8.3,11.1,16,23.2,28.5,33.7c29.3,24.6,20,17.3,26,22.7c0.9,0.8,11.6,7.6,24,14c20.7,10.7,50.2,25.8,84.7,38.7
		c59.9,22.3,139.3,34.4,204.5,11.3c12.9-4.6,18.8-7.2,24.2-10.7c8.3-5.4,12.1-10.9,13.5-13c6.2-9.3,10.2-23.2,8.5-33
		C590,63.1,576.5,48,576.5,48"/>
	<path class="st3" d="M179.9,34.4c0,0-19.5,10.6-33.3,22.8c-9,8-14,16.7-14.7,23.3c-1.3,11,11,20.2,11,20.2s7.6,5.8,21.8,9.6
		c10.7,2.8,21,6.4,35.6,7.2c34.2,1.8,23.5,1.5,30.6,2.1c1.1,0.1,13.1-0.5,26.6-2c22.6-2.5,54.8-6.1,91.3-13
		c63.4-12,143.3-37.8,201.1-77.4c11.5-7.9,16.5-11.7,20.9-15.9c6.8-6.4,9.1-11.1,10-12.8c3.8-7.8,4.4-17.2,0.4-22
		c-9.4-11.5-26.1-14.4-26.1-14.4"/>
</g>
<g id="_x34_ef1610a-9e03-48a5-8dcf-c01d7d13df94">
	<path class="st4" d="M85.5,101.1c19.5,44.1-5.4,94.9-34.7,133.1c-9.8,12.8-20.6,26.3-22,42.3c-1.6,19.7,11.7,37.8,27.5,49.6
		c28.8,21.5,68.2,28.2,102.5,17.3c29.6-9.4,54.6-30.6,84.5-39.1c50-14.3,103,9.4,145.8,39c30.3,20.9,62.8,46.4,99.3,41.9
		c25.7-3.2,47.5-21.2,62.3-42.5c7.2-10.3,13.4-21.8,23.8-28.7c6.2-4.1,13.5-6.3,20.7-7.9c66.4-14.2,136.8,20.4,202.4,2.6
		c44.3-12,79.5-47,101.5-87.3s32.2-85.7,40.7-130.8c6.1-32,11.1-66.6-2.8-96c-14.7-31.2-48.9-50.1-83.2-53.6s-68.7,6.2-100.3,20
		C714-21.5,675.3,2.7,632.2,2.7c-29.3,0.1-57.3-11.2-85.4-19.8c-46.9-14.4-95.7-21.5-144.3-28.1C356-51.4,309-57.3,262.2-53.6
		c-33.1,2.6-62.4,15.3-94.5,21.1c-21,3.8-42,1-62.6,7.4C79.8-17.1,53.8,1.3,52.4,30.2C51.1,57.7,75.1,77.8,85.5,101.1z"/>
	<title>celebration</title>

		<linearGradient id="SVGID_1_" gradientUnits="userSpaceOnUse" x1="581.6489" y1="-51.4637" x2="581.6489" y2="362.5014" gradientTransform="matrix(1 0 0 -1 -125.1 441.72)">
		<stop  offset="0" style="stop-color:#808080;stop-opacity:0.25"/>
		<stop  offset="0.54" style="stop-color:#808080;stop-opacity:0.12"/>
		<stop  offset="1" style="stop-color:#808080;stop-opacity:0.1"/>
	</linearGradient>
	<path class="st5" d="M597.9,149.4c-4.3-11.1-15.3-37.3-22.5-32.1c-9.2,6.6,9.2,35.5,9.2,35.5c0.5,5.3-9.8,16.4-15.3,21.9
		c0-0.4,0-0.7,0-0.7c-0.1,0.2-0.1,0.4-0.2,0.6l-0.5-0.3c-0.1,0.4-0.3,0.8-0.7,1.2c0-0.8,0-1.2,0-1.2c-1.1,4.5-19.6,10.2-19.6,10.2
		s-0.5,0-1.4,0c-5.1,0-18.5-1.2-24.7-11.1c-3.2-5.4-7.3-10.2-12.1-14.1c-1.7-1.3-3.7-2.1-5.8-2.2c-17.1-1.1-31-9.8-33.8-11.6
		l-0.5-0.4l-0.1,0.3c-0.7-0.9-1.3-1.9-1.9-2.9l0,0l-0.3-0.5c8.5-4.2,13.8-12.9,13.8-22.3c0-0.2,0-0.4,0-0.5c1.5-2.6,2.3-5.6,2.3-8.6
		v-3l3.9-3.5c1.8-1.6,3.6-3.3,4.5-5.5c0.4-0.9,0.5-1.8,0.5-2.8c0.2-1.7-0.5-3.3-1.8-4.3c-3-2.1-8,0-10.2-2.9c-1-1.3-0.8-3.1-1.3-4.6
		c-1-3.1-4.6-4.8-7.9-4.8s-6.5,1.2-9.7,2.1c-6.7,1.9-13.7,2.6-20.7,1.9c-1.9-0.3-3.8-0.3-5.7,0.2c-2.3,0.9-4,2.9-4.6,5.3
		c-0.2,0.9-0.4,1.8-0.4,2.7c-2.8,3.1-4.3,7.2-4.3,11.4v7.7c0,4.1,1.5,8.1,4.2,11.2c0.6,7.3,4.5,14,10.5,18.2c0,0.2,0,0.4,0,0.6
		l0.1,0.1c-0.2,2.4-0.5,4.7-1.1,7.1v-0.5c0,0-14,7.5-29,7.6h-1.7c-3-0.1-5.8,1-8,3c-4.4,4.2-12.2,10.8-17,10.8
		c-1,0-26.2,4.9-30.4,5.8l-7.8-7.6l-0.2,0.5l-0.5-0.5c-0.9,0.1-1.7,0.2-2.5,0.4c-4-4.7-12-15.8-13.9-30.5c0,0,17.3-19.7,10.9-38
		c-5.4-15.6-20.4,17.9-24.6,28c-0.7,1.8-0.8,3.7-0.3,5.5l14,45.2c-1.3,3.5-1.7,7.3-1.1,11h-0.2l10.2,13.1c0,0,7.7,3.3,19.7,3.2
		c8.8,0,17.6-1.7,25.7-4.9h2.4l-0.5,0.2h12.2l7.7,23.4c-0.3,2.1-4,31.9-7,38.5c-0.9,2.2-1.3,4.6-1.2,7c0.2,4.6,0.9,9.1,2.2,13.5
		l6.8-0.3l-0.3,0.5c-5.7,11.8-15.3,32.7-21,52.3l-9.9,20l7.4,89.7l0,0h0.3l0,0l0.6,0.1l0,0c0.8,0.1,2,0.3,3.6,0.5l-0.6,1l-16.3,27
		c0,0-11.6,23.8,14.1,19.3c0,0,9.5-2.8,13.4-19l16.9-15.9c0,0,0.8-10.5-4-14.8c-0.3-4.9-1.1-19.1,0.1-22.5c1.4-4.1-6-51.8-6-51.8
		s26.8-55.5,43-56.9c1.2-0.1,2.4,0.1,3.5,0.5c13.3,4.3,29.5,36.6,34.2,46.6l0,0l0.2,0.5v0.1l0.2,0.4v0.1l0.2,0.3v0.1l0.1,0.3v0.1
		l0.1,0.3v0.1l0.1,0.2v0.1l0.1,0.1v0.1v0.1l0,0l0,0.1l2.1,62.5l0,0l0,0l0,0l0.2,0.1l0,0h0.1l-0.2,1.3l-0.9,6.5
		c0,0,11.6,24.5,10.9,27.6s7.8,15.5,19.7,12.1c12-3.5,4.9-22.9,4.9-22.9l-11.5-23.8l-0.5-1.1c1.1-0.7,2.2-1.5,3.2-2.4
		c0,0-3.5-25.5,0-31c3.5-5.5,4.6-30.7,4.6-30.7s-2.5-17.3-6.7-24.8l-17.7-63.3c5.3,4.9,9.4,6.9,12.9,6.7h0.6c1.5,0,3-0.3,4.3-1.1
		c0.7-0.4,1.4-0.9,2-1.4c0.1-0.1,0.2-0.2,0.3-0.3l0,0c4.9-4.1-5.6-20.4-11.6-30c-5.8-9.3,2.2-34.6,2.8-36.5c0.5-0.4,1.1-0.7,1.7-1
		c1.2-0.5,2.6-0.8,3.9-0.9c5.7,0.2,12.8,3.5,21.5,5.2c6.1,1,12.2,1.5,18.4,1.4h0.4c2.5,0,4.7,0,6.5-0.1c1.6-0.1,3.2-0.5,4.7-1.3l0,0
		c1.2-0.7,2.4-1.6,3.3-2.7l15.3-17.3l-0.4,0.2c0.7-2,0.7-4.1,0-6.1l16.2-28C598.8,155.8,599.1,152.4,597.9,149.4z"/>
	<path class="st6" d="M415.8,455.4L399.4,471c-3.7,16-12.9,18.7-12.9,18.7c-24.8,4.4-13.6-19-13.6-19l15.8-26.7l1.9-3.3
		c0,0,11.2-3.4,18.7-1.4c0.9,0.3,1.8,0.7,2.5,1.4C416.6,444.9,415.8,455.4,415.8,455.4z"/>
	<path class="st6" d="M516.5,469.3c-11.6,3.4-19.7-8.8-19-11.9s-10.6-27.2-10.6-27.2l0.9-6.4l0.8-5.9l19,1.4l1.8,3.8l11.1,23.5
		C520.5,446.6,528,465.9,516.5,469.3z"/>
	<path class="st7" d="M412,443.5c-1.8,3.1-16.3,1.5-23.4,0.6l1.9-3.3c0,0,11.2-3.4,18.7-1.4c0.9,0.3,1.8,0.7,2.5,1.4
		C412,442.4,412,443.5,412,443.5z"/>
	<path class="st7" d="M509.4,423.1c-9.7,6.5-20.1,1.6-21.7,0.8l0.8-5.9l19,1.4L509.4,423.1z"/>
	<path class="st8" d="M512.1,389c-3.4,5.4,0,30.6,0,30.6c-11.2,10.2-24.5,2.7-24.5,2.7l-2-61.6c0,0-22.1-50.7-37.8-49.3
		s-41.5,56.1-41.5,56.1s7.1,46.9,5.8,51s0,23.8,0,23.8c-2.4,4.1-27.2,0-27.2,0l-7.1-88.5l9.5-19.7c5.5-19.3,14.7-40,20.3-51.6
		c2.8-5.8,4.6-9.3,4.6-9.3l18.1-3.8l58.8-12.2l21.1,76.8c4.1,7.5,6.5,24.5,6.5,24.5S515.5,383.6,512.1,389z"/>
	<g class="st9">
		<path d="M493,422.4l-2-61.6c0,0-22.1-50.7-37.8-49.3c-0.7,0.1-1.4,0.2-2,0.5c15.3,5.1,34.4,48.9,34.4,48.9l2,61.6
			c4.2,2.1,8.9,3,13.5,2.5C498.3,424.5,495.5,423.7,493,422.4z"/>
		<path d="M390.3,442.5l-7.1-88.5l9.5-19.8c5.5-19.3,14.7-40,20.3-51.6c2.8-5.8,4.6-9.3,4.6-9.3l18.1-3.8l53.6-11.1l-0.3-1.1
			l-58.8,12.2l-18.1,3.8c0,0-1.8,3.5-4.6,9.3c-5.6,11.6-14.8,32.3-20.3,51.6l-9.5,19.7l7.1,88.5c0,0,13.6,2.2,21.6,1.7
			C401,443.9,395.6,443.3,390.3,442.5z"/>
	</g>
	<path class="st10" d="M348.9,168.4c0,0-19.4,1-16.7,21.4l5.4,0.7l8.2-8.8l4.1-7.5v-1.7L348.9,168.4z"/>
	<path class="st7" d="M348.9,168.4c0,0-19.4,1-16.7,21.4l5.4,0.7l8.2-8.8l4.1-7.5v-1.7L348.9,168.4z"/>
	<path class="st10" d="M564.6,175.9c0,0,16,8.5,11.9,18.4l-5.1,2l-6.8-3.7l-1-8.8l0.7-6.1L564.6,175.9z"/>
	<path class="st7" d="M564.6,175.9c0,0,16,8.5,11.9,18.4l-5.1,2l-6.8-3.7l-1-8.8l0.7-6.1L564.6,175.9z"/>
	<path class="st11" d="M448.3,88.2h13.6c11.6,0,21.1,9.4,21.1,21.1l0,0c0,11.6-9.4,21.1-21.1,21.1h-13.6c-11.6,0-21.1-9.4-21.1-21.1
		l0,0C427.2,97.6,436.6,88.2,448.3,88.2z"/>
	<path class="st12" d="M348.8,171.3l-11.9,19l-1-3.4l-16.2-52.7c-0.6-1.8-0.5-3.7,0.3-5.5c4.1-9.9,18.5-43,23.7-27.5
		c6.1,18-10.5,37.4-10.5,37.4c1.9,15.8,10.8,27.2,14.2,31.1C348.2,170.8,348.8,171.3,348.8,171.3z"/>
	<path class="st12" d="M562.1,179.5c0,0,18.7-17.7,18-24.8c0,0-17.7-28.6-8.8-35c7-5.1,17.6,20.7,21.8,31.7c1.1,3,0.8,6.3-0.7,9
		l-22.4,39.6L562.1,179.5z"/>
	<path class="st12" d="M440.9,130.2c0,0,3.4,21.8-6.5,29.9s28.2,8.1,28.2,8.1l13.6-12.6c0,0-15.7-14.6-10.9-25.5L440.9,130.2z"/>
	<path class="st7" d="M440.3,155c0,0,14.6,10.9,29.3-1.4l23.8,49.3l-1.4,60.2c0,0-49.3,25.5-69.7,9.9s-3.4-23.8-3.4-23.8l-4.8-46.3
		l5.1-29.9c0,0,9.2-14.3,9.9-14.3S440.3,155,440.3,155z"/>
	<path class="st13" d="M440.3,154.3c0,0,14.6,10.9,29.3-1.4l23.8,49.3l-1.4,60.2c0,0-49.3,25.5-69.7,9.9s-3.4-23.8-3.4-23.8
		l-4.8-46.3l5.1-29.9c0,0,9.2-14.3,9.9-14.3S440.3,154.3,440.3,154.3z"/>
	<path class="st7" d="M440.3,149.2c0,0-13.9,7.9-28.9,7.5c-2.9-0.1-5.6,1-7.7,2.9c-4.3,4.1-11.8,10.6-16.5,10.6
		c-1,0-29.9,5.8-29.9,5.8l-7.6-7.6c0,0-11.4,22.3-16.8,21.3l9.9,12.9c0,0,18.7,8.2,43.2-1.7h14.3l7.5,23.1c0,0-3.7,31.3-6.8,38.1
		s1,20.1,1,20.1l26.9-1c0,0,1.4-13.3,3.4-15s-7.1-60.2-7.1-60.2s-6.1-33,16.3-44.9L440.3,149.2z"/>
	<path class="st7" d="M430.1,269.6c-1,4-1.7,8.1-2.1,12.3l-20.6,0.8c2.8-5.8,4.6-9.3,4.6-9.3L430.1,269.6z"/>
	<path class="st7" d="M348.8,171.3l-11.9,19l-1-3.4c4.4-4.3,9.5-13.4,11.5-17.2C348.2,170.8,348.8,171.3,348.8,171.3z"/>
	<path class="st10" d="M440.3,149.2c0,0-14.6,7.9-29.6,7.5c-2.9-0.1-5.6,1-7.7,2.9c-4.3,4.1-11.8,10.6-16.5,10.6
		c-1,0-29.9,5.8-29.9,5.8l-7.7-7.7c0,0-11.4,22.3-16.8,21.3l9.9,12.9c0,0,18.7,8.2,43.2-1.7h14.3l7.5,23.1c0,0-3.7,31.3-6.8,38.1
		s1,20.1,1,20.1l26.9-1c0,0,1.4-13.3,3.4-15s-7.1-60.2-7.1-60.2s-6.1-33,16.3-44.9L440.3,149.2z"/>
	<path class="st7" d="M469.5,147.2c0,0,13.9,10.6,32.4,11.8c2,0.1,4,0.9,5.5,2.1c4.7,4,8.6,8.7,11.7,14C526.7,187.4,545,186,545,186
		s17.9-5.6,18.9-10c0,0,0.5,24,11.7,18.2l-14.8,17c-1.9,2.2-4.6,3.5-7.5,3.6c-5.5,0.2-15.2,0.3-23.3-1.3
		c-12.3-2.4-21.1-8.2-27.6-3.1c0,0-8.5,26.5-2.7,36.1s16,25.5,11.2,29.6c-4.8,4.1-10.5,3.7-20.1-6.1s-10.5-26.5-10.5-26.5l2.4-42.9
		c0,0-9.2-32.3-18-38.8L469.5,147.2z"/>
	<path class="st7" d="M577,193.8l-14.8,17.1c-1,1.1-2.2,2-3.6,2.7l0,0c-1.2,0.5-2.5,0.9-3.9,0.9c-5.5,0.2-15.2,0.3-23.3-1.3
		c-11.5-2.2-19.9-7.4-26.3-3.9c-0.4,0.2-0.9,0.5-1.3,0.9c0,0-8.5,26.5-2.7,36.1s16,25.5,11.2,29.6c-0.8,0.7-1.7,1.3-2.7,1.7
		c-4.3,1.9-9.6,0.3-17.4-7.9c-9.5-9.9-10.5-26.5-10.5-26.5l2.4-42.9c0,0-9.2-32.3-18-38.8l3.9-14c2.7,1.8,16.1,10.4,32.6,11.5
		c2,0.1,4,0.9,5.5,2.1c4.7,4,8.6,8.7,11.7,14c7.5,12.3,25.8,10.9,25.8,10.9c4.4-1.4,8.7-3.1,12.9-5.1l0,0c2.6-1.3,4.9-2.7,6-4
		c0.3-0.3,0.5-0.8,0.7-1.2C565.3,175.7,565.8,199.6,577,193.8z"/>
	<path class="st10" d="M576.3,194.1l-14.8,17.1c-0.8,0.9-1.8,1.7-2.9,2.3l0,0c-1.4,0.8-3,1.2-4.5,1.3c-5.5,0.2-15.2,0.3-23.3-1.3
		c-11-2.1-19.3-7.1-25.6-4.3c-0.7,0.3-1.4,0.7-2,1.2c0,0-8.5,26.5-2.7,36.1s16,25.5,11.2,29.6c-0.6,0.5-1.3,1-2,1.4
		c-4.4,2.4-9.8,1-18.1-7.5c-9.5-9.9-10.5-26.5-10.5-26.5l2.4-42.9c0,0-9.2-32.3-18-38.8l4.1-14.6l0.5,0.3
		c2.7,1.8,16.1,10.4,32.6,11.5c2,0.1,4,0.9,5.5,2.1c4.7,4,8.6,8.7,11.7,14c7.5,12.3,25.8,10.9,25.8,10.9c4.4-1.4,8.7-3.1,12.9-5.1
		l0,0c3.1-1.6,5.6-3.3,6-4.9c0,0,0,0.3,0,0.9C564.9,181,566.4,199.2,576.3,194.1z"/>
	<path class="st7" d="M465.7,130.7h-25c0.5,4,0.7,8,0.5,12c7.8,5.5,17.9,6.2,26.4,1.9C465.2,140.1,463.8,135.1,465.7,130.7z"/>
	<circle class="st12" cx="455.9" cy="122" r="24.8"/>
	<path class="st7" d="M450.8,117.6c2.8-0.3,5.5-1.3,8.3-0.8c2.5,0.5,4.6,2.2,7.1,2.7c4.8,1,9.2-2.5,12.8-5.8l7.8-7.1
		c1.7-1.6,3.5-3.2,4.4-5.4s0.6-5-1.3-6.4c-2.8-2-7.8,0-9.8-2.8c-0.9-1.3-0.8-3-1.3-4.5c-1-3.1-4.4-4.7-7.7-4.8s-6.3,1.1-9.4,2
		c-6.5,1.9-13.3,2.5-20,1.9c-1.8-0.3-3.7-0.3-5.5,0.2c-2.2,1-3.9,2.9-4.4,5.3c-1.5,5.4,1.1,14.2,3.7,19.1S445.5,118.2,450.8,117.6z"
		/>
	<path class="st11" d="M450.8,116.9c2.8-0.3,5.5-1.3,8.3-0.8c2.5,0.5,4.6,2.2,7.1,2.7c4.8,1,9.2-2.5,12.8-5.8l7.8-7.1
		c1.7-1.6,3.5-3.2,4.4-5.4s0.6-5-1.3-6.4c-2.8-2-7.8,0-9.8-2.8c-0.9-1.3-0.8-3-1.3-4.5c-1-3.1-4.4-4.7-7.7-4.8s-6.3,1.1-9.4,2
		c-6.5,1.9-13.3,2.5-20,1.9c-1.8-0.3-3.7-0.3-5.5,0.2c-2.2,1-3.9,2.9-4.4,5.3c-1.5,5.4,1.1,14.2,3.7,19.1S445.5,117.5,450.8,116.9z"
		/>
	<path class="st7" d="M407.4,224.2c0,0,5.4,0.7,8.2,4.1s7.5,4.4,7.5,4.4"/>
	<path class="st7" d="M358.5,179.3c0,0,4.4,9.9,1.7,10.9s-1.7,8.2-1.7,8.2"/>
	<g class="st9">
		<path d="M360,175.9c0,0,28.9-5.8,29.9-5.8c4.7,0,12.2-6.5,16.5-10.6c1.3-1.2,2.9-2.1,4.7-2.6h-0.4c-2.9-0.1-5.6,1-7.7,2.9
			c-4.3,4.1-11.8,10.6-16.5,10.6c-0.8,0-19.3,3.7-26.8,5.2L360,175.9z"/>
		<path d="M440.3,150.7v-1.3c-7,3.5-14.4,5.9-22.2,7.1C425.8,155.8,433.3,153.8,440.3,150.7z"/>
		<path d="M404.6,282.1c0,0-4.1-13.3-1-20.1s6.8-38.1,6.8-38.1l-7.5-23.1h-14.3l-0.9,0.3h11.8l7.5,23.1c0,0-3.7,31.3-6.8,38.1
			s1,20.1,1,20.1l26.9-1v-0.2L404.6,282.1z"/>
	</g>
	<g class="st9">
		<path d="M512.1,270.7c-0.6,0.5-1.3,1-2,1.4c-4.4,2.4-9.8,1-18.1-7.5c-7.6-7.8-9.8-20-10.3-24.6l-0.2,3.5c0,0,1,16.7,10.5,26.5
			c8.3,8.5,13.7,9.9,18.1,7.5c0.7-0.4,1.4-0.9,2-1.4c1.4-1.2,1.5-3.5,0.8-6.4C512.6,270.1,512.4,270.4,512.1,270.7z"/>
		<path d="M571.5,194.6l-9.6,11.1c-0.8,0.9-1.8,1.7-2.9,2.3l0,0c-1.4,0.8-3,1.2-4.5,1.3c-5.5,0.2-15.2,0.3-23.3-1.3
			c-11-2.1-19.3-7.1-25.6-4.3c-0.7,0.3-1.4,0.7-2,1.2c0,0-5.5,17.1-4.7,28.8c0.7-10.9,4.7-23.4,4.7-23.4c0.6-0.5,1.3-0.9,2-1.2
			c6.3-2.8,14.5,2.1,25.6,4.3c8.1,1.6,17.8,1.5,23.3,1.3c1.6-0.1,3.1-0.5,4.5-1.3l0,0c1.1-0.6,2.1-1.4,2.9-2.3l14.8-17.1
			C575.2,195.1,573.2,195.3,571.5,194.6z"/>
	</g>

		<linearGradient id="SVGID_2_" gradientUnits="userSpaceOnUse" x1="262.195" y1="124.37" x2="262.195" y2="124.59" gradientTransform="matrix(1 0 0 -1 -125.1 441.72)">
		<stop  offset="0" style="stop-color:#808080;stop-opacity:0.25"/>
		<stop  offset="0.54" style="stop-color:#808080;stop-opacity:0.12"/>
		<stop  offset="1" style="stop-color:#808080;stop-opacity:0.1"/>
	</linearGradient>
	<path class="st14" d="M136.6,317.1c0.2,0.2,0.6,0.3,0.9,0.1C137.2,317.3,136.9,317.2,136.6,317.1z"/>

		<linearGradient id="SVGID_3_" gradientUnits="userSpaceOnUse" x1="248.5703" y1="6.5425" x2="248.5703" y2="340.5048" gradientTransform="matrix(1 0 0 -1 -125.1 441.72)">
		<stop  offset="0" style="stop-color:#808080;stop-opacity:0.25"/>
		<stop  offset="0.54" style="stop-color:#808080;stop-opacity:0.12"/>
		<stop  offset="1" style="stop-color:#808080;stop-opacity:0.1"/>
	</linearGradient>
	<path class="st15" d="M238.5,151.5c-1.8-0.5-4.4-1.4-7.5-2.5c3.2-4.1,5.6-8.9,6.9-13.9l-0.3,0.1c0.1-0.3,0.2-0.6,0.3-0.9
		c-5.9,2.4-12.5-1.7-16.7-6.9c-4.2-5.2-7-11.7-11.6-16.6c-1.9-1.9-4-3.7-6.1-5.3c-1.4-1-2.8-2.1-4.5-2.2c-2.7-0.1-4.8,2.5-7.3,3.3
		c-1.7,0.4-3.5,0.3-5.1-0.2c-6.6-1.5-13-4.3-19.8-5.1c-3.6-0.4-7.3,0-10.7,1.2c-3.4,1.3-5,3.9-7.7,5.9c-3,2.2-8.9,2.2-12.4,2.5
		c-4.2,0.5-8.5,0.7-12.8,0.5c-2.4-0.2-4.9-0.1-7.3,0.3c-5.1,1.1-9.1,5.1-12.9,9c-1,0.9-1.8,2-2.1,3.4c0,0.4,0,0.7,0,1.1
		c0,1,0.1,2,0.5,3c1.2,3.5,2.8,6.8,4.9,9.8c1.6,2.2,3.4,4.3,4.2,6.9c0.4,1.3,0.6,2.6,0.6,4c0,1.4-0.2,2.9-0.4,4.3
		c-0.7,3.9-1.8,7.8-3.3,11.5c-0.9,1.9-1.6,3.9-1.9,6c0,0.4,0,0.9,0,1.3c-0.3,6.6,6.4,11.4,7.7,17.9c0.1,0.5,0.2,1.1,0.2,1.6
		c-0.1,4.1-2.5,8.1-5.9,9.7c0.3,0.1,0.6,0.2,0.9,0.3c-0.3,0.2-0.6,0.4-0.9,0.5c0.6,0.2,1.3,0.5,1.9,0.6c-3.9,3.4-7.2,7.5-9.7,12
		c-11.6,21.5-89.9,63.7-89.9,63.7l1.2,0.7l-0.9,0.6c-6.8,4.5-22.7,17.7-8.3,34.3c0,0,11.2-17.7,19.1-25.3c0.4-0.3,0.7-0.6,1-0.9
		c0.3,0.5,0.5,1.2,0.3,1.8l51.5-29c0,0,18.3-12.8,23.4-15.7c3.6-2.2,7.5-3.9,11.6-5l-0.6,0.3c1.9-0.5,3.9-0.8,5.9-0.8
		c9.1,0.1,19,6.8,22.2,33.3c4.4,35.4,2.3,41.8,0.9,42.7c-0.2,0-0.3,0-0.5-0.1c0,0,0.1,0.1,0.1,0.1c-0.2,0-0.4,0-0.6-0.1
		c0.2,0.2,0.5,0.3,0.8,0.2c0.2,0.1,0.4,0,0.6-0.1l0,0c0.2,0,0.5,0,0.7,0c0,0.3,0,0.7-0.1,1c-0.1,0-0.4,0.2,0,0.2l0,0
		c-0.1,2-0.1,4.2,0,6.4c-4.5,0.3-9.1,0.5-13,0.8l0.4-1.9l0.2-0.8c3.5-0.3,6.8-1.3,7.2-4.1c0.9-6.2-7.7-9.5-14.9-9.9
		s-50.7,2.5-50.7,2.5s-6.5,8.4,14.1,11c0.6,0.3,1.3,0.7,1.9,1c8.1,4.6,19.1,13.1,24.3,17.3l0.7,0.6l-2.4,1.9
		c12.8,2.9,25.1,51.7,31.9,74s21.7,21.5,34.1,18.2c11.6-3.1,13-36.7,13.2-40.9v-0.4l20.6,25.4l1.6,1.9c0.6,0.3,1.2,0.6,1.8,0.9
		c15.6,7.4,32.8-6.8,27.9-23c-5-16.3-12.6-40.5-17.8-50.7c-4.3-8.5-9.8-22.8-13.2-31.6c0.4-0.2,0.9-0.4,1.3-0.6c0,0-0.1-0.4-0.2-1.1
		l0.2-0.1c0,0-5-25.7-5.2-44c0-0.3,0-0.7,0-1c0-0.2,0-0.4,0-0.6c3.7-0.9,6.1-1.2,6.1-1.2l0.1-0.8l-0.4,0.1L210,242
		c0,0,7.6-16.2,1.8-22.9c-1.8-2-3-4.4-3.4-7c-1-6.2,0-16.5,13.5-25.1c20.9-13.2,29-24,29-24S251.3,155.2,238.5,151.5z M197.1,167.9
		V157c3.9-0.2,7.8,0.3,11.7,0c1.9-0.1,3.8-0.5,5.6-1l0.9,0.6C209.7,161,203.6,164.8,197.1,167.9z M138,339.6
		c1.5,1.1,3.1,2.2,4.6,3.3c0.9,5.4,1.8,9.2,1.8,9.5C142.7,347.9,140.5,343.6,138,339.6z"/>
	<path class="st16" d="M171,330.6l-0.9,4.9l-0.7,3.7l-1.3,6.8l-12.2,8.5c0,0-1.1-0.9-2.9-2.4c-5-4.1-15.5-12.5-23.3-17
		c-2-1.3-4.1-2.3-6.4-3L171,330.6z"/>
	<path class="st7" d="M171,330.6l-0.9,4.9c-2.7,0.1-5.4,0-8.1-0.4l-28.5,0.4c-1.4-0.1-2.6-0.2-3.8-0.3c-2-1.3-4.1-2.3-6.4-3
		L171,330.6z"/>
	<path class="st17" d="M162.1,334.2c0,0,14.3,2.4,15.1-3.7s-7.3-9.3-14.2-9.8s-48.5,2.5-48.5,2.5s-7.3,9.8,19.1,11.4L162.1,334.2z"
		/>
	<path class="st7" d="M171,330.6l-0.9,4.9l-0.7,3.7l-1.3,6.8l-12.2,8.5c0,0-1.1-0.9-2.9-2.4c-5-4.1-15.5-12.5-23.3-17
		c-2-1.3-4.1-2.3-6.4-3L171,330.6z"/>
	<path class="st7" d="M171,330.6l-0.9,4.9c-2.7,0.1-5.4,0-8.1-0.4l-28.5,0.4c-1.4-0.1-2.6-0.2-3.8-0.3c-2-1.3-4.1-2.3-6.4-3
		L171,330.6z"/>
	<path class="st7" d="M162.1,334.2c0,0,14.3,2.4,15.1-3.7s-7.3-9.3-14.2-9.8s-48.5,2.5-48.5,2.5s-7.3,9.8,19.1,11.4L162.1,334.2z"/>
	<rect x="118.7" y="133.4" class="st18" width="74.5" height="88.4"/>
	<rect x="118.7" y="133.4" class="st7" width="74.5" height="88.4"/>
	<path class="st16" d="M31.3,284.7c-1.2,0.3-2.8,1.5-4.5,3.2c-7.5,7.4-18.3,24.9-18.3,24.9c-13.8-16.4,1.5-29.3,8-33.8
		c1.6-1.1,2.6-1.7,2.6-1.7L31.3,284.7z"/>
	<path class="st16" d="M170.2,161.3c0,0,3.7,25.7,16.3,31.8s-16.3,17.5-16.3,17.5l-39.5-14.7c0,0,22.4-7.3,17.9-28.9L170.2,161.3z"
		/>
	<path class="st16" d="M127.9,315.7l-0.9,4.9l-0.7,3.7l-1.3,6.8l-12.2,8.5c0,0-1.1-0.9-2.9-2.4c-5-4.1-15.5-12.5-23.3-17
		c-2-1.3-4.1-2.3-6.4-3L127.9,315.7z"/>
	<path class="st7" d="M127.9,315.7l-0.9,4.9c-2.7,0.1-5.4,0-8.1-0.4l-28.5,0.4c-1.4-0.1-2.6-0.2-3.8-0.3c-2-1.3-4.1-2.3-6.4-3
		L127.9,315.7z"/>
	<path class="st17" d="M118.9,319.4c0,0,14.3,2.4,15.1-3.7s-7.3-9.4-14.3-9.8s-48.5,2.4-48.5,2.4s-7.3,9.8,19.1,11.4L118.9,319.4z"
		/>
	<path class="st7" d="M126.3,324.3l-1.3,6.8l-12.2,8.5c0,0-1.1-0.9-2.9-2.4L126,324L126.3,324.3z"/>
	<path class="st19" d="M206.9,417.6c-0.6-0.3-1.1-0.6-1.7-0.9l-1.5-1.9l-19.7-25v0.4c-0.1,4.2-1.5,37.3-12.6,40.3
		c-11.8,3.3-26.1,4.1-32.6-17.9s-18.3-70-30.5-72.9l18.1-14.9c0,0,12,14,16.9,27.5c-0.2-0.9-8.5-39.6-1.6-46.4h59.5
		c0,0,9.2,26.1,15.5,39.1c4.9,10.1,12.3,33.8,17,49.9C238.3,410.9,221.9,424.9,206.9,417.6z"/>
	<path class="st7" d="M205.2,313.2c-9.2,5.4-49.5,3.2-62.6,2.3l-3.6-0.3c-0.4,0,0.1-0.2,0.1-0.2l0.4-3.7l9.8-24.8l52.3-30.3
		c-1.1,3.2-1.4,8.1-1.3,13.7C200.5,287.9,205.2,313.2,205.2,313.2z"/>
	<path class="st20" d="M205.2,312c-9.2,5.4-49.5,3.2-62.6,2.3l-3.6-0.3h-0.6l0.6-0.2l3.2-0.9l6.9-27.7l52.3-30.3
		c-1.1,3.2-1.4,8.1-1.3,13.7C200.5,286.7,205.2,312,205.2,312z"/>
	<path class="st7" d="M200.3,268.7c-10.6,2.5-34.1,9.7-43.1,27c-6,11.6-11,16.5-14.6,18.6l-3.6-0.3l0.1-0.2l3.2-0.9l6.9-27.7
		l52.3-30.3C200.5,258.2,200.2,263.1,200.3,268.7z"/>
	<path class="st7" d="M19.1,277.4l12.2,7.3c-1.2,0.3-2.8,1.5-4.5,3.2c-1-3-7.4-7.1-10.3-8.9C18,278,19.1,277.4,19.1,277.4z"/>
	<path class="st7" d="M136.9,314.6c-0.3,0.2-0.6,0.1-0.9-0.1C136.3,314.5,136.6,314.6,136.9,314.6z"/>
	<path class="st21" d="M164.5,191.5c0,0-11,1.2-18.7-6.9c0,0-32.6,9.4-43.6,30.5s-85.9,62.7-85.9,62.7s13,7.3,11.8,11l49.3-28.5
		c0,0,17.5-12.6,22.4-15.5s31.8-20.4,37.5,27.3s0,42,0,42s8.1,2.9,20-20s48.5-28.1,48.5-28.1l2-24c0,0,7.3-15.9,1.7-22.6
		c-1.7-2-2.8-4.3-3.3-6.9c-0.9-6.1,0-16.3,13-24.7c20-13,27.7-23.6,27.7-23.6s0.4-7.7-11.8-11.4s-61.9-23.6-61.9-23.6l-1.6,6.9
		l39.1,27.7c0,0-19.5,15.9-35,15.5C175.5,179.2,178.4,191.1,164.5,191.5z"/>
	<path class="st7" d="M172.1,172.5c-1-3.3-1.7-6.6-2.3-10l-21.6,5.7c0.9,4.1,0.8,8.4-0.5,12.5C156.8,183.1,166.3,179.9,172.1,172.5
		L172.1,172.5z"/>
	<circle class="st16" cx="154.1" cy="157" r="23.2"/>
	<path class="st7" d="M166.5,104.2c6.4,0.7,12.6,3.5,18.9,5c1.6,0.5,3.3,0.6,4.9,0.2c2.5-0.8,4.5-3.3,7-3.3c1.6,0,3,1.1,4.3,2.1
		c2.1,1.6,4,3.3,5.9,5.2c4.4,4.8,7.1,11.1,11.1,16.3c4,5.2,10.3,9.2,16,6.8c-3.9,15-16.5,26.5-30.1,27.4c-5.5,0.4-11-0.8-16.3,0.8
		c-1.3,0.5-2.7,0.9-4.1,1c-3,0-5.5-2.8-7.4-5.5c-4.4-6.4-8-13.6-13-19.4c-1.6-1.9-3.6-3.8-5.9-4.1s-4.5,0.8-6.6,1.8
		c-3.4,1.8-6.9,3.6-9.6,6.7s-4.3,7.6-3.2,11.7c0.6,2.2,2,4.2,2,6.5c0,3.7-3.2,6.4-3.9,10c-0.1,1.5-0.2,3-0.2,4.6
		c-0.3,4.9-3.5,9-6.9,12.1c-1.3,1.2-2.8,2.5-3.1,4.4c-0.3,1.3,0,2.6-0.2,3.9c-0.5,3.2-3.7,4.8-6.5,5.3c-3.3,0.5-6.7,0.1-9.8-1.2
		c4-1.9,6.4-7.2,5.5-12c-1.3-6.6-7.9-11.4-7.3-18.1c0.3-2.1,0.9-4.1,1.8-6c1.4-3.6,2.5-7.4,3.1-11.3c0.7-3,0.6-6.1-0.2-9
		c-0.9-2.6-2.6-4.6-4.1-6.8c-2-3-3.6-6.2-4.7-9.6c-0.4-1-0.6-2.1-0.4-3.2c0.3-1.3,1-2.4,2-3.3c3.6-3.8,7.5-7.8,12.4-8.9
		c2.3-0.4,4.7-0.5,7-0.3c4.1,0.1,8.2,0,12.2-0.5c3.3-0.4,9-0.3,11.8-2.5c2.6-2,4.1-4.5,7.4-5.8C159.4,104.1,163,103.8,166.5,104.2z"
		/>
	<path class="st7" d="M179.4,344c0,0,13.4,26.5,9.4,34.6"/>
	<path class="st7" d="M203.8,414.8l-19.7-25v0.4c0,0-1.1-8.1,2.6-5.4c8.2,5.9,21.4,15.7,21.6,17.4S205.6,410.7,203.8,414.8z"/>
	<g class="st9">
		<path d="M175.9,179.2c0,0,1.7,6.9-3.7,10.3c8.3-1.4,8.6-7.9,8.4-10.6C179,179.2,177.5,179.3,175.9,179.2z"/>
		<path d="M21.2,276.2c0,0,74.9-41.5,85.9-62.7c7.9-15.2,26.9-24.3,37-28.3c-7.4,2.5-32.2,11.9-41.5,29.9
			c-11,21.2-85.9,62.7-85.9,62.7L21.2,276.2z"/>
		<path d="M190.5,176c12.8-4,24.9-13.9,24.9-13.9l-39.1-27.7l0.9-3.8l-3.7-1.5l-1.6,6.9l39.1,27.7
			C204.7,168.7,197.8,172.8,190.5,176z"/>
		<path d="M190.7,269.9c5-1.7,10.1-3,15.3-3.9l0.1-0.8C200.9,266.4,195.7,267.9,190.7,269.9z"/>
		<path d="M143.3,312.5H143c-0.3,0.2-0.6,0.1-0.9-0.1c0.3,0.1,0.6,0.1,0.9,0.1c1.3-0.8,3.4-6.9-0.9-42.1
			c-4.5-37.6-22.2-34.6-31.8-30.3c9.9-2.7,23.5-0.4,27.3,31.9c4.2,35.2,2.2,41.3,0.9,42.1C140.2,314.1,141.9,313.5,143.3,312.5z"/>
		<path d="M138.5,314.2c-0.3,0-0.6,0-0.9-0.1C137.9,314.3,138.2,314.3,138.5,314.2z"/>
	</g>
	<path class="st18" d="M166.5,103.4c6.4,0.7,12.6,3.5,18.9,5c1.6,0.5,3.3,0.6,4.9,0.2c2.5-0.8,4.5-3.3,7-3.3c1.6,0,3,1.1,4.3,2.1
		c2.1,1.6,4,3.3,5.9,5.2c4.4,4.8,7.1,11.1,11.1,16.3c4,5.2,10.3,9.2,16,6.8c-3.9,15-16.5,26.5-30.1,27.4c-5.5,0.4-11-0.8-16.3,0.8
		c-1.3,0.5-2.7,0.9-4.1,1c-3,0-5.5-2.8-7.4-5.5c-4.4-6.4-8-13.6-13-19.4c-1.6-1.9-3.6-3.8-5.9-4.1s-4.5,0.8-6.6,1.8
		c-3.4,1.8-6.9,3.6-9.6,6.7s-4.3,7.6-3.2,11.7c0.6,2.2,2,4.2,2,6.5c0,3.7-3.2,6.4-3.9,10c-0.1,1.5-0.2,3-0.2,4.6
		c-0.3,4.9-3.5,9-6.9,12.1c-1.3,1.2-2.8,2.5-3.1,4.4c-0.3,1.3,0,2.6-0.2,3.9c-0.5,3.2-3.7,4.8-6.5,5.3c-3.3,0.5-6.7,0.1-9.8-1.2
		c4-1.9,6.4-7.2,5.5-12c-1.3-6.6-7.9-11.4-7.3-18.1c0.3-2.1,0.9-4.1,1.8-6c1.4-3.6,2.5-7.4,3.1-11.3c0.7-3,0.6-6.1-0.2-9
		c-0.9-2.6-2.6-4.6-4.1-6.8c-2-3-3.6-6.2-4.7-9.6c-0.4-1-0.6-2.1-0.4-3.2c0.3-1.3,1-2.4,2-3.3c3.6-3.8,7.5-7.8,12.4-8.9
		c2.3-0.4,4.7-0.5,7-0.3c4.1,0.1,8.2,0,12.2-0.5c3.3-0.4,9-0.3,11.8-2.5c2.6-2,4.1-4.5,7.4-5.8C159.4,103.3,163,103,166.5,103.4z"/>

		<linearGradient id="SVGID_4_" gradientUnits="userSpaceOnUse" x1="848.6646" y1="9.456" x2="848.6646" y2="416.4798" gradientTransform="matrix(1 0 0 -1 -125.1 441.72)">
		<stop  offset="0" style="stop-color:#808080;stop-opacity:0.25"/>
		<stop  offset="0.54" style="stop-color:#808080;stop-opacity:0.12"/>
		<stop  offset="1" style="stop-color:#808080;stop-opacity:0.1"/>
	</linearGradient>
	<path class="st22" d="M829.5,51.3L829.5,51.3c0-0.1,0-0.3,0-0.4s0-0.3-0.1-0.4h-0.2c0-0.3,0-0.5,0-0.8c-0.4-9.3-13.2-29-18.4-23.2
		c-4.5,5.1,2.3,17.9,5.8,23.6l0.3,0.5l-0.2-0.1c0,0-14.3,42.7-16,44.3s-13.5,35.2-29,39c-3.1,0.7-5.6,1.4-7.8,2l0.2-0.6
		c1-3.3,2.2-6.4,2.7-10c0.5-3.6,0-8-1.8-9.8c-0.9-0.9-2-1-2.7-2.4c-0.5-1.2-0.7-2.5-0.8-3.9l-1.3-16.2l0.9-0.3
		c5.6-1.8,11-6,11.6-11.7c-0.2,0.1-0.4,0.1-0.6,0.2c0.1-0.3,0.1-0.7,0.2-1c-4.7,1.8-9-3-13.5-5.2c-7.4-3.6-15.9-0.2-23.5,0.6
		c-8.7,0.9-16.9-2.6-25.8-2c-4.8,0.4-10.2,3.6-9.9,8.4c0.2,2.6,2,4.8,2.8,7.3c1.9,6-2.3,12.1-6.1,17.3c-2.5,3.4-4.8,7.5-5.2,11.5
		c-8.6-9-17.9-19.4-19-23.3l-24.9-42.7c0,0-0.6,0.6-1.5,1.6c-0.2-0.5-0.3-1-0.5-1.5c-3.2-8.9-12.2-30.5-23.6-26.5
		s4.7,26.1,11.8,34.9l1,1.2c-0.6,0.1-1.2,0.1-1.8-0.1l27.8,47.7c0,0,5,9.1,9.7,11.6c0,0,34.5,43.5,34.9,52.2s15.5,31.9,15.5,31.9
		s5,37.7-3.8,44.3h0.1h0.1h0.1h0.1h0.2h0.1h0.1h0.2h0.1h0.2h0.1c-0.4,0.4-0.8,0.9-1.3,1.4c-6.5,7.3-14.9,22.8-3.5,49.3
		c16.8,39,19.4,54.3,19.4,54.3s-32,1.7-38.3,2.9c-5.6,1.1-27.3,1.9-32.2,2c-1.8-2.1-7-6.6-14.1,0c-8.8,8.3-15.2,36-15.2,36
		s-3.4,22.4,8,16.6c0,0,13.5-18.7,17.3-19.5c1.9-0.4,3.9-3.2,5.4-5.8l0.1,0l0,0c0.1,0,0.5-0.2,1.1-0.4l0,0
		c2.8-1.1,10.5-3.8,16.6-2.5c3.3,0.7,17.6,0.9,32.6,0.9c-3.4,8.1-9.4,29-9.4,29s-2.5,19.5,5.9,18.7c6-0.6,15.2-15.9,20-24.7
		c3.5-2.5,13.5-11.7,20.8-11l49.7-19.1c0,0,11.8-6.6,5.5-28.6c-5-17.5-19.2-53.2-24.8-67.1l0,0l-0.2-0.4c-1.4-3.4-2.2-5.4-2.2-5.4
		l0,0c-2.3-6.4-3.8-13-4.5-19.7c0-0.5-0.1-1.1-0.1-1.6c0.7-0.3,1.4-0.7,2-1.1c0,0-4.6-46.8,0-51.8l0,0l0,0l0.1-0.1l0,0v-0.1l0,0
		l0.1-0.1l0,0l0.2-0.2l0,0l0.2-0.3l0,0c0.3-0.3,0.5-0.7,0.9-1.2l0,0c2.7-3.9,7.6-12.7,6.2-23.2l0,0c-0.1-0.5-0.1-0.9-0.2-1.4l0,0
		c-0.5-2.8-1.5-5.6-2.9-8.1c-0.2-1.1-0.3-2.1-0.4-3.2c0-0.6,0-1.3,0-2v-0.1c0-0.2,0-0.4,0-0.6v-0.1c0-0.5,0.1-1,0.2-1.4v-0.2
		c0-0.2,0-0.4,0.1-0.5v-0.2c0-0.2,0.1-0.4,0.1-0.5V158c0.1-0.2,0.1-0.5,0.2-0.7v-0.1c0.1-0.2,0.1-0.4,0.2-0.6l0.1-0.2l0.2-0.5
		l0.1-0.2c0.1-0.2,0.2-0.4,0.3-0.5l0.1-0.1c0.1-0.2,0.2-0.4,0.4-0.6l0.1-0.2l0.3-0.5l0.2-0.2l0.3-0.4l0.2-0.2
		c0.2-0.2,0.4-0.4,0.6-0.6c5.5-5,29.9-41.9,29.9-41.9s5.9-8.3,5.9-13.7C820.1,96.6,830.6,61.9,829.5,51.3z M764,361.1
		c-0.6-5.7-1.2-12.7-1.8-20l9.5,14.8C771.7,355.9,770.8,360.4,764,361.1z"/>
	<path class="st23" d="M664.7,357.9c0,0-5.7-9-14.3-0.8s-14.7,35.4-14.7,35.4s-3.3,22,7.7,16.3c0,0,13-18.3,16.7-19.1s7.7-11,7.7-11
		L664.7,357.9z"/>
	<path class="st23" d="M725.8,379.9c0,0-7.7-3.7-10.2-0.8S705,410.5,705,410.5s-2.4,18.7,5.7,17.9s22.4-30.2,22.4-30.2L725.8,379.9z
		"/>
	<path class="st24" d="M725.8,379.9c0,0-7.7-3.7-10.2-0.8S705,410.5,705,410.5s-2.4,18.7,5.7,17.9s22.4-30.2,22.4-30.2L725.8,379.9z
		"/>
	<path class="st25" d="M752.7,324.5l17.5,27.3c0,0-1.2,6.1-11.8,4.9l-36.3,22.8c0,0-3.2,27.8,6.9,25.3c1.6-0.4,13-12.2,21.2-11.4
		l48.1-18.7c0,0,11.4-6.5,5.3-28.1s-26.3-71.6-26.3-71.6l-31.9,17.9L752.7,324.5z"/>
	<path class="st24" d="M752.7,324.5l17.5,27.3c0,0-1.2,6.1-11.8,4.9l-36.3,22.8c0,0-3.2,27.8,6.9,25.3c1.6-0.4,13-12.2,21.2-11.4
		l48.1-18.7c0,0,11.4-6.5,5.3-28.1s-26.3-71.6-26.3-71.6l-31.9,17.9L752.7,324.5z"/>
	<path class="st25" d="M763.7,364.9c2.4,15.5-11.4,16.7-11.4,16.7s-62.3,1.2-69.7-0.4s-17.1,2.8-17.1,2.8
		c-12.6-7.7-2.4-26.9-2.4-26.9s26.1-0.8,32.2-2s37.1-2.9,37.1-2.9s-2.4-15.1-18.7-53.4c-11.1-26-3-41.3,3.4-48.4
		c1.6-1.9,3.5-3.5,5.6-4.9l50.1,2.4c-0.1,2.5,0,5.1,0.3,7.6c0.9,8.6,3.1,17.1,6.7,25c-2.8,0-21.2,17.1-21.2,17.1
		S761.2,349.4,763.7,364.9z"/>
	<path class="st7" d="M666.7,358.8c0,0,26.1-0.8,32.2-2s37.1-2.8,37.1-2.8s-2.4-15.1-18.7-53.4c-11.1-26-3-41.3,3.4-48.4
		c1.6-1.9,3.5-3.5,5.6-4.9l46.4,2.3c0-0.5,0-1,0-1.5l-50.1-2.4c-2.1,1.4-4,3-5.6,4.9c-6.3,7.1-14.4,22.4-3.4,48.4
		c16.3,38.2,18.8,53.3,18.8,53.3s-31,1.6-37.1,2.8s-32.2,2-32.2,2s-10.2,19.2,2.4,26.9c0,0,0.4-0.2,1-0.4
		C658.1,374.9,666.7,358.8,666.7,358.8z"/>
	<rect x="716" y="96" class="st23" width="25.3" height="63.9"/>
	<rect x="716" y="96" class="st7" width="25.3" height="63.9"/>
	<path class="st23" d="M755.7,86.7c0.9,0.2,1.8,0.3,2.4,1.5c0.4,1,0.6,2,0.6,3l1.6,19.8c0,1.3,0.3,2.6,0.7,3.8
		c0.7,1.3,1.8,1.5,2.7,2.4c1.8,1.7,2.3,6.1,1.8,9.6c-0.5,3.5-1.7,6.6-2.6,9.8c-1.4,4.6-2.3,9.8-4.2,13.6s-5.4,6-7.6,2.7
		s-1.9-9.8-2.4-15.2c-0.7-9-4.2-16.8-4.5-25.8c-0.2-7.3,1.8-14.2,3-21.1c0.9-4.8,0.9-10.6,2.2-14.9C750.5,81,752.6,85.8,755.7,86.7z
		"/>
	<path class="st7" d="M755.7,86.7c0.9,0.2,1.8,0.3,2.4,1.5c0.4,1,0.6,2,0.6,3l1.6,19.8c0,1.3,0.3,2.6,0.7,3.8
		c0.7,1.3,1.8,1.5,2.7,2.4c1.8,1.7,2.3,6.1,1.8,9.6c-0.5,3.5-1.7,6.6-2.6,9.8c-1.4,4.6-2.3,9.8-4.2,13.6s-5.4,6-7.6,2.7
		s-1.9-9.8-2.4-15.2c-0.7-9-4.2-16.8-4.5-25.8c-0.2-7.3,1.8-14.2,3-21.1c0.9-4.8,0.9-10.6,2.2-14.9C750.5,81,752.6,85.8,755.7,86.7z
		"/>
	<path class="st26" d="M648.8,58.6l-9.8,8.1c0,0-1.2-1.4-2.9-3.6c-6.8-8.7-22.4-30.4-11.4-34.3s19.8,17.3,22.8,26.1
		C648.4,57.2,648.8,58.6,648.8,58.6z"/>
	<path class="st26" d="M825.2,55.7c-4.1,6.1-9.8,0-9.8,0s-0.7-1.1-1.8-2.9c-3.3-5.7-9.9-18.2-5.6-23.2c5-5.7,17.4,13.7,17.8,22.8
		C826,53.6,825.7,54.7,825.2,55.7z"/>
	<path class="st26" d="M725,121.7c0,0,8.2,26.1,5.7,33.8s17.5,16.7,17.5,16.7H771c0,0,8.2-16.7,6.1-21.6s-19.5-8.5-19.5-8.5
		s-10.2,0-9.8-27.3L725,121.7z"/>
	<path class="st7" d="M648.8,58.6l-9.8,8.1c0,0-1.2-1.4-2.9-3.6c3.5-0.6,9.1-5.8,11.5-8.2C648.4,57.2,648.8,58.6,648.8,58.6z"/>
	<path class="st7" d="M825.2,55.7c-4.1,6.1-9.8,0-9.8,0s-0.7-1.1-1.8-2.9l0.1-0.4c2.6,1.9,10.8,0.3,12.1,0
		C826,53.6,825.7,54.7,825.2,55.7z"/>
	<path class="st7" d="M772.9,255.5c-12.6,5.8-53.5-4.5-56-5.1c1.6-1.9,3.5-3.5,5.6-4.9l50.1,2.4C772.5,250.5,772.6,253,772.9,255.5z
		"/>
	<path class="st27" d="M730.3,144.1c0,0-9.8,3.3-23.6-9.4c0,0-31-30.5-33-37.9l-24-42c0,0-10.2,11-14.3,9.4l26.9,46.8
		c0,0,4.9,9,9.4,11.4c0,0,33.4,42.8,33.8,51.3s15,31.5,15,31.5s4.9,37.1-3.7,43.6c0,0,47.7,12.2,57.8,4.1c0,0-4.5-46,0-50.9
		c0,0,13.8-16.3,4.5-34.2c0,0-2-9.8,3.3-14.7s28.9-41.1,28.9-41.1s5.7-8.1,5.7-13.4c0,0,10.6-35.8,9-45.2c0,0-9.4,2-12.2,0
		c0,0-13.8,42-15.5,43.6s-13,34.6-28.1,38.3s-17.5,5.3-17.5,5.3s29.3,18.3,15.1,26.5S730.3,144.1,730.3,144.1z"/>
	<path class="st7" d="M748.8,128c-0.5-3.8-0.7-7.7-0.6-11.6l-22.8,6.9c0.6,1.5,1.1,3.1,1.4,4.7c2.6,1.1,6.1,3.9,9.2,3.9
		C740.6,132,745.1,130.7,748.8,128z"/>
	<circle class="st26" cx="735.6" cy="109.5" r="21.2"/>
	<path class="st7" d="M710.4,76.9c-4.7,0.4-9.9,3.6-9.6,8.3c0.1,2.6,1.9,4.7,2.7,7.2c1.8,6-2.3,11.9-5.9,17s-7,11.8-3.9,17.2
		c0.9,1.3,1.8,2.5,2.9,3.7c3.8,5.2,3.8,12.1,5.5,18.4c4.5,16.5,21.1,26.6,37.8,23c-3-3.9-4.5-8.7-4.3-13.6c0.2-3.6,1.4-7.3,0-10.6
		c-1.8-4.2-7-5.9-9.7-9.6s-2.5-8.8-1.2-13.2c1.3-4.4,3.5-8.5,4.6-13c0.3-1.3,0.6-2.6,1-3.9c1.9-5.3,7.5-8.4,13-9.8
		s11.3-1.4,16.7-3.2s10.6-5.9,11.2-11.5c-4.5,1.8-8.7-2.9-13.1-5.1c-7.2-3.6-15.4-0.2-22.8,0.6C726.9,79.7,718.9,76.2,710.4,76.9z"
		/>
	<path class="st23" d="M710,76c-4.7,0.4-9.9,3.6-9.6,8.3c0.1,2.6,1.9,4.7,2.7,7.2c1.8,6-2.3,11.9-5.9,17s-7,11.8-3.9,17.2
		c0.9,1.3,1.8,2.5,2.9,3.7c3.8,5.2,3.8,12.1,5.5,18.4c4.5,16.5,21.1,26.6,37.8,23c-3-3.9-4.5-8.7-4.3-13.6c0.2-3.6,1.4-7.3,0-10.6
		c-1.8-4.2-7-5.9-9.7-9.6s-2.5-8.8-1.2-13.2c1.3-4.4,3.5-8.5,4.6-13c0.3-1.3,0.6-2.6,1-3.9c1.9-5.3,7.5-8.4,13-9.8
		s11.3-1.4,16.7-3.2s10.6-5.9,11.2-11.5c-4.5,1.8-8.7-2.9-13.1-5.1c-7.2-3.6-15.4-0.2-22.8,0.6C726.5,78.9,718.5,75.4,710,76z"/>
	<path class="st7" d="M756.6,156.5c0,0,8.5,7.6,10.2,10.9"/>
	<path class="st7" d="M774.9,201.8c0,0-10.6,0-15.5,1.2s-16.7,0-16.7,0"/>
	<g class="st9">
		<path d="M767.8,166.9c-0.9,0.5-1.9,0.9-2.9,1.1c2.7,0.6,5.4,0.2,7.8-1.1c14.3-8.1-15.1-26.5-15.1-26.5h-4.9
			C752.7,140.4,782,158.8,767.8,166.9z"/>
		<path d="M826.1,54c0-0.3-0.1-0.5-0.1-0.7c-1.7,0.3-3.4,0.6-5.1,0.8C822.6,54.2,824.4,54.2,826.1,54z"/>
		<path d="M721.7,248.8c8.5-6.5,3.7-43.6,3.7-43.6s-14.7-22.8-15.1-31.4s-33.8-51.3-33.8-51.3c-4.5-2.4-9.4-11.4-9.4-11.4
			s-27.7-45.2-31.8-46.8l26.9,46.8c0,0,4.9,9,9.4,11.4c0,0,33.4,42.8,33.8,51.3s15.1,31.4,15.1,31.4s4.9,37.1-3.7,43.6
			c0,0,29.3,7.5,46.8,6.8C746.1,255,721.7,248.8,721.7,248.8z"/>
		<path d="M730.5,144.4l-0.2-0.3c-0.3,0.1-0.6,0.1-0.8,0.2C729.8,144.4,730.2,144.4,730.5,144.4z"/>
	</g>
	<g class="st9">
		<path d="M826,53.2l-0.3,0.1c-0.4,12.5-9.1,41.9-9.1,41.9c0,5.3-5.7,13.4-5.7,13.4s-23.6,36.3-28.9,41.1s-3.3,14.7-3.3,14.7l0,0.1
			c-0.2-3.3,0.2-8.4,3.6-11.5c5.3-4.9,28.9-41.1,28.9-41.1s5.7-8.1,5.7-13.4C817,98.5,827.6,62.7,826,53.2z"/>
		<path d="M774.3,198.7c0.6,3.5,0.2-0.2,0.4,3.3c0,0,10-11.7,7.3-26.2C782.8,188.7,774.3,198.7,774.3,198.7z"/>
	</g>
	<ellipse class="st4" cx="446.3" cy="551.9" rx="427.7" ry="41.1"/>
	<path class="st0" d="M169-54.5"/>
	<path class="st0" d="M-128-91.5"/>
</g>
<g id="Layer_2" class="st28">

		<ellipse transform="matrix(0.945 0.3269 -0.3269 0.945 31.875 -121.1499)" class="st29" cx="376.3" cy="34.2" rx="226.5" ry="96.4"/>
</g>
</svg>
