<svg xmlns="http://www.w3.org/2000/svg" viewBox="0 0 250 250"><defs><style>.cls-1{fill:#0b6ede;}.cls-2{fill:#fff;}</style></defs><title>4.3</title><g id="レイヤー_2" data-name="レイヤー 2"><g id="レイヤー_1-2" data-name="レイヤー 1"><circle class="cls-1" cx="125" cy="125" r="125"/><path class="cls-2" d="M125.12,62.49a11,11,0,1,0,11,11A11,11,0,0,0,125.12,62.49Zm0,18.3a7.32,7.32,0,1,1,7.32-7.32A7.32,7.32,0,0,1,125.12,80.79Z"/><path class="cls-2" d="M132.44,86.28H132l-.39.19a14.59,14.59,0,0,1-13,0l-.39-.19h-.43a9.16,9.16,0,0,0-9.15,9.15v11a5.49,5.49,0,0,0,5.49,5.49h22a5.49,5.49,0,0,0,5.49-5.49v-11A9.16,9.16,0,0,0,132.44,86.28Zm5.49,20.13a1.83,1.83,0,0,1-1.83,1.83h-22a1.83,1.83,0,0,1-1.83-1.83v-11a5.49,5.49,0,0,1,5.1-5.47,18.31,18.31,0,0,0,15.42,0,5.49,5.49,0,0,1,5.1,5.47Z"/><path class="cls-2" d="M163.54,122.87a11,11,0,1,0,11,11A11,11,0,0,0,163.54,122.87Zm0,18.3a7.32,7.32,0,1,1,7.32-7.32A7.32,7.32,0,0,1,163.54,141.17Z"/><path class="cls-2" d="M170.86,146.66h-.43l-.39.18a14.59,14.59,0,0,1-13,0l-.39-.18h-.43a9.16,9.16,0,0,0-9.15,9.15v11a5.49,5.49,0,0,0,5.49,5.49h22a5.49,5.49,0,0,0,5.49-5.49v-11A9.16,9.16,0,0,0,170.86,146.66Zm5.49,20.13a1.83,1.83,0,0,1-1.83,1.83h-22a1.83,1.83,0,0,1-1.83-1.83v-11a5.49,5.49,0,0,1,5.1-5.47,18.31,18.31,0,0,0,15.42,0,5.49,5.49,0,0,1,5.1,5.47Z"/><path class="cls-2" d="M86.69,122.87a11,11,0,1,0,11,11A11,11,0,0,0,86.69,122.87Zm0,18.3A7.32,7.32,0,1,1,94,133.85,7.32,7.32,0,0,1,86.69,141.17Z"/><path class="cls-2" d="M94,146.66h-.43l-.39.18a14.59,14.59,0,0,1-13,0l-.39-.18h-.43a9.16,9.16,0,0,0-9.15,9.15v11a5.49,5.49,0,0,0,5.49,5.49h22a5.49,5.49,0,0,0,5.49-5.49v-11A9.16,9.16,0,0,0,94,146.66Zm5.49,20.13a1.83,1.83,0,0,1-1.83,1.83h-22a1.83,1.83,0,0,1-1.83-1.83v-11a5.49,5.49,0,0,1,5.1-5.47,18.31,18.31,0,0,0,15.42,0,5.49,5.49,0,0,1,5.1,5.47Z"/><path class="cls-2" d="M143.27,155.42h0a1.83,1.83,0,0,0-2.4-1h0a40.59,40.59,0,0,1-26.1,1.8l1.71-.5a1.83,1.83,0,0,0-1-3.51l-7.32,2.15s0,0-.07,0a1.81,1.81,0,0,0-.47.26l-.18.12a1.77,1.77,0,0,0-.45.62,1.83,1.83,0,0,0-.14.76,5.64,5.64,0,0,0,.18.73s0,.05,0,.08l3.66,7a1.83,1.83,0,0,0,3.25-1.69l-1.49-2.85a44,44,0,0,0,29.86-1.62A1.83,1.83,0,0,0,143.27,155.42Z"/><path class="cls-2" d="M174,110.6a1.83,1.83,0,0,0-2.59,0l-2.59,2.59A43.85,43.85,0,0,0,142.3,77a1.83,1.83,0,0,0-1.43,3.37,40.19,40.19,0,0,1,24.2,32.34L163,110.6a1.83,1.83,0,0,0-2.59,2.59l5.49,5.49a1.83,1.83,0,0,0,2.59,0h0l5.49-5.49A1.83,1.83,0,0,0,174,110.6Z"/><path class="cls-2" d="M110.43,78.34a1.7,1.7,0,0,0,0-.32s0,0,0,0,0,0,0,0a1.75,1.75,0,0,0-.17-.25,1.85,1.85,0,0,0-.21-.3,1.72,1.72,0,0,0-.36-.24l-.2-.15-7.32-3.34A1.83,1.83,0,0,0,100.57,77l3.79,1.73a43.85,43.85,0,0,0-23.16,38.69,1.83,1.83,0,0,0,3.66,0,40.19,40.19,0,0,1,19.8-34.66l-1.32,2.76a1.83,1.83,0,0,0,.85,2.44,1.8,1.8,0,0,0,.79.18,1.83,1.83,0,0,0,1.65-1l3.66-7.64a.08.08,0,0,1,0-.06,1.76,1.76,0,0,0,.1-.39,1.89,1.89,0,0,0,.07-.3A1.82,1.82,0,0,0,110.43,78.34Z"/></g></g></svg>