<svg xmlns="http://www.w3.org/2000/svg" viewBox="0 0 250 250"><defs><style>.cls-1{fill:#0b6ede;}.cls-2{fill:#fff;}</style></defs><title>4.4</title><g id="レイヤー_2" data-name="レイヤー 2"><g id="レイヤー_1-2" data-name="レイヤー 1"><circle class="cls-1" cx="125" cy="125" r="125"/><path class="cls-2" d="M129.5,144.29a9.15,9.15,0,1,0,9.15,9.15A9.15,9.15,0,0,0,129.5,144.29Zm0,14.64a5.49,5.49,0,1,1,5.49-5.49A5.49,5.49,0,0,1,129.5,158.93Z"/><path class="cls-2" d="M146,148h-2.9l-.09-.23,2-2a1.83,1.83,0,0,0,0-2.59l-5.18-5.18a1.88,1.88,0,0,0-2.59,0l-2,2-.23-.09V137a1.83,1.83,0,0,0-1.83-1.83h-7.32A1.83,1.83,0,0,0,124,137v2.9l-.23.09-2-2a1.83,1.83,0,0,0-2.59,0L114,143.09a1.83,1.83,0,0,0,0,2.59l2,2-.09.23H113a1.83,1.83,0,0,0-1.83,1.83v7.32a1.83,1.83,0,0,0,1.83,1.83h2.9l.09.23-2,2a1.83,1.83,0,0,0,0,2.59l5.18,5.18a1.88,1.88,0,0,0,2.59,0l2-2,.23.09v2.9a1.83,1.83,0,0,0,1.83,1.83h7.32a1.83,1.83,0,0,0,1.83-1.83V167l.23-.09,2,2a1.83,1.83,0,0,0,2.59,0l5.18-5.18a1.83,1.83,0,0,0,0-2.59l-2-2,.09-.23H146a1.83,1.83,0,0,0,1.83-1.83v-7.32A1.83,1.83,0,0,0,146,148Zm-1.83,7.32h-2.37a1.83,1.83,0,0,0-1.75,1.31,10.85,10.85,0,0,1-.86,2.08,1.83,1.83,0,0,0,.31,2.17l1.67,1.67-2.59,2.59-1.67-1.67a1.83,1.83,0,0,0-2.17-.31,10.85,10.85,0,0,1-2.08.86,1.83,1.83,0,0,0-1.31,1.75v2.37h-3.66v-2.37a1.83,1.83,0,0,0-1.31-1.75,10.85,10.85,0,0,1-2.08-.86,1.83,1.83,0,0,0-2.17.31l-1.67,1.67-2.59-2.59,1.67-1.67a1.83,1.83,0,0,0,.31-2.17,10.85,10.85,0,0,1-.86-2.08,1.83,1.83,0,0,0-1.75-1.31h-2.37v-3.66h2.37A1.83,1.83,0,0,0,119,150.3a10.85,10.85,0,0,1,.86-2.08,1.83,1.83,0,0,0-.31-2.17l-1.67-1.67,2.59-2.59,1.67,1.67a1.83,1.83,0,0,0,2.17.31,10.85,10.85,0,0,1,2.08-.86,1.83,1.83,0,0,0,1.31-1.75V138.8h3.66v2.37a1.83,1.83,0,0,0,1.31,1.75,10.85,10.85,0,0,1,2.08.86,1.83,1.83,0,0,0,2.17-.31l1.67-1.67,2.59,2.59-1.67,1.67a1.83,1.83,0,0,0-.31,2.17,10.85,10.85,0,0,1,.86,2.08,1.83,1.83,0,0,0,1.75,1.31h2.37Z"/><path class="cls-2" d="M164.27,120.51a9.15,9.15,0,1,0,9.15,9.15A9.15,9.15,0,0,0,164.27,120.51Zm0,14.64a5.49,5.49,0,1,1,5.49-5.49A5.49,5.49,0,0,1,164.27,135.14Z"/><path class="cls-2" d="M180.73,124.17h-2.9l-.09-.23,2-2a1.83,1.83,0,0,0,0-2.59l-5.18-5.18a1.88,1.88,0,0,0-2.59,0l-2,2-.23-.09v-2.9a1.83,1.83,0,0,0-1.83-1.83h-3.66V71.1a1.83,1.83,0,0,0-1.83-1.83H80.1a1.83,1.83,0,0,0-1.83,1.83V177.23a1.83,1.83,0,0,0,1.83,1.83h82.34a1.83,1.83,0,0,0,1.83-1.83V148h3.66a1.83,1.83,0,0,0,1.83-1.83v-2.9l.23-.09,2,2a1.83,1.83,0,0,0,2.59,0l5.18-5.18a1.83,1.83,0,0,0,0-2.59l-2-2,.09-.23h2.9a1.83,1.83,0,0,0,1.83-1.83V126A1.83,1.83,0,0,0,180.73,124.17ZM155.12,72.93h5.49v38.42a1.83,1.83,0,0,0-1.83,1.83v2.9l-.23.09-2-2a1.83,1.83,0,0,0-1.29-.54h-.09ZM151.46,175.4H81.93V72.93h69.53v43.65l-2.72,2.72a1.83,1.83,0,0,0,0,2.59l2,2-.09.23h-2.9A1.83,1.83,0,0,0,146,126v7.32a1.83,1.83,0,0,0,1.83,1.83h2.9l.09.23-2,2a1.83,1.83,0,0,0,0,2.59l2.72,2.72Zm9.15,0h-5.49V145.72a1.76,1.76,0,0,0,1.39-.53l2-2,.23.09v2.9a1.83,1.83,0,0,0,1.83,1.83Zm18.3-43.91h-2.37a1.83,1.83,0,0,0-1.75,1.31,10.85,10.85,0,0,1-.86,2.08,1.83,1.83,0,0,0,.31,2.17l1.67,1.67-2.59,2.59-1.67-1.67a1.83,1.83,0,0,0-2.17-.31,10.85,10.85,0,0,1-2.08.86,1.83,1.83,0,0,0-1.31,1.75v2.37h-3.66v-2.37a1.83,1.83,0,0,0-1.31-1.75,10.85,10.85,0,0,1-2.08-.86,1.83,1.83,0,0,0-2.17.31l-1.67,1.67-2.59-2.59,1.67-1.67a1.83,1.83,0,0,0,.31-2.17,10.85,10.85,0,0,1-.86-2.08,1.83,1.83,0,0,0-1.75-1.31h-2.37v-3.66H152a1.83,1.83,0,0,0,1.75-1.31,10.85,10.85,0,0,1,.86-2.08,1.83,1.83,0,0,0-.31-2.17l-1.67-1.67,2.59-2.59,1.67,1.67a1.81,1.81,0,0,0,.55.37l.2.06a1.8,1.8,0,0,0,.44.09l.11,0,.2,0a.43.43,0,0,0,.16,0A1.82,1.82,0,0,0,159,120a10.85,10.85,0,0,1,2.08-.86,1.83,1.83,0,0,0,1.31-1.74V115h3.66v2.37a1.83,1.83,0,0,0,1.31,1.75,10.85,10.85,0,0,1,2.08.86,1.83,1.83,0,0,0,2.17-.31l1.67-1.67,2.59,2.59-1.67,1.67a1.83,1.83,0,0,0-.31,2.17,10.85,10.85,0,0,1,.86,2.08,1.83,1.83,0,0,0,1.75,1.31h2.37Z"/><rect class="cls-2" x="127.67" y="82.08" width="18.3" height="3.66"/><rect class="cls-2" x="87.42" y="82.08" width="36.6" height="3.66"/><rect class="cls-2" x="103.88" y="89.4" width="42.08" height="3.66"/><rect class="cls-2" x="87.42" y="89.4" width="12.81" height="3.66"/><rect class="cls-2" x="124.01" y="96.72" width="21.96" height="3.66"/><rect class="cls-2" x="87.42" y="96.72" width="32.94" height="3.66"/><rect class="cls-2" x="87.42" y="104.04" width="58.55" height="3.66"/><rect class="cls-2" x="127.67" y="111.36" width="18.3" height="3.66"/><rect class="cls-2" x="87.42" y="111.36" width="36.6" height="3.66"/><rect class="cls-2" x="100.22" y="118.68" width="45.74" height="3.66"/><rect class="cls-2" x="87.42" y="118.68" width="9.15" height="3.66"/><rect class="cls-2" x="87.42" y="126" width="27.45" height="3.66"/></g></g></svg>