<svg xmlns="http://www.w3.org/2000/svg" viewBox="0 0 250 250"><defs><style>.cls-1{fill:#0b6ede;}.cls-2{fill:#fff;}</style></defs><title>4.6</title><g id="レイヤー_2" data-name="レイヤー 2"><g id="レイヤー_1-2" data-name="レイヤー 1"><circle class="cls-1" cx="125" cy="125" r="125"/><g id="_グループ_" data-name="&lt;グループ&gt;"><path class="cls-2" d="M174.38,64.35H116.6a7.79,7.79,0,0,0-7.7,7.86v39.32a7.79,7.79,0,0,0,7.7,7.86h18.63l-2.75,9.83h-4.32v3.93h34.67v-3.93H158.5l-2.75-9.83h18.63a7.79,7.79,0,0,0,7.7-7.86V72.22A7.79,7.79,0,0,0,174.38,64.35Zm-61.63,7.86a3.89,3.89,0,0,1,3.85-3.93h57.78a3.89,3.89,0,0,1,3.85,3.93v33.42H112.75Zm41.74,57h-18l2.75-9.83h12.5Zm19.89-13.76H116.6a3.89,3.89,0,0,1-3.85-3.93v-2h65.48v2A3.89,3.89,0,0,1,174.38,115.47Z"/><path class="cls-2" d="M72.3,182.32h50.07a5.84,5.84,0,0,0,5.78-5.9v-5.9a2,2,0,0,0-1.93-2h-3.85V141a5.84,5.84,0,0,0-5.78-5.9H78.08A5.84,5.84,0,0,0,72.3,141v27.52H68.45a2,2,0,0,0-1.93,2v5.9A5.84,5.84,0,0,0,72.3,182.32ZM76.15,141a2,2,0,0,1,1.93-2H116.6a2,2,0,0,1,1.93,2v27.52H103.12a1.91,1.91,0,0,0-1.36.58l-1.36,1.39H94.28l-1.36-1.39a1.91,1.91,0,0,0-1.36-.58H76.15Zm-5.78,31.46H90.76l1.36,1.39a1.91,1.91,0,0,0,1.36.58h7.7a1.91,1.91,0,0,0,1.36-.58l1.36-1.39H124.3v3.93a2,2,0,0,1-1.93,2H72.3a2,2,0,0,1-1.93-2Z"/><path class="cls-2" d="M85.78,119.4h3.85v3.93H85.78Z"/><path class="cls-2" d="M85.78,111.54h3.85v3.93H85.78Z"/><path class="cls-2" d="M85.78,127.27h3.85v3.93H85.78Z"/><path class="cls-2" d="M85.78,103.67h3.85v3.93H85.78Z"/><path class="cls-2" d="M85.78,95.81h3.85v3.93H85.78Z"/><path class="cls-2" d="M93.49,95.81h3.85v3.93H93.49Z"/><path class="cls-2" d="M101.19,95.81H105v3.93h-3.85Z"/><path class="cls-2" d="M155.12,145H159v3.93h-3.85Z"/><path class="cls-2" d="M155.12,152.83H159v3.93h-3.85Z"/><path class="cls-2" d="M155.12,137.1H159V141h-3.85Z"/><path class="cls-2" d="M155.12,160.69H159v3.93h-3.85Z"/><path class="cls-2" d="M155.12,168.55H159v3.93h-3.85Z"/><path class="cls-2" d="M147.41,168.55h3.85v3.93h-3.85Z"/><path class="cls-2" d="M139.71,168.55h3.85v3.93h-3.85Z"/><path class="cls-2" d="M132,168.55h3.85v3.93H132Z"/><path class="cls-2" d="M144.55,77.68a8.55,8.55,0,0,1,4.34,1.18,1.9,1.9,0,0,0,2.46-.46,2,2,0,0,0-.05-2.55l-2.4-2.93-1.39,1.18a12.36,12.36,0,0,0-10.71,2.39,13,13,0,0,0-3.47,15.77l3.45-1.75a9,9,0,0,1,.4-8.63A8.67,8.67,0,0,1,144.55,77.68Z"/><path class="cls-2" d="M152.28,82.44a9,9,0,0,1-3.44,11.65,8.55,8.55,0,0,1-8.69,0,1.9,1.9,0,0,0-2.46.46,2,2,0,0,0,.05,2.55l2.24,3.66,2.72-1.68a12.38,12.38,0,0,0,10-3,13,13,0,0,0,3-15.38Z"/><path class="cls-2" d="M91.56,154.79a5.94,5.94,0,0,1,2.3-4.71,5.68,5.68,0,0,1,5.07-1l1.06-3.78a9.54,9.54,0,0,0-10.8,4.2,10,10,0,0,0,.92,11.76l2.89-2.6A6,6,0,0,1,91.56,154.79Z"/><path class="cls-2" d="M97.34,160.69a5.69,5.69,0,0,1-2-.35L94.07,164a9.52,9.52,0,0,0,11.23-3.72,10,10,0,0,0-.74-12l-2.89,2.6a6,6,0,0,1,.94,6.33A5.77,5.77,0,0,1,97.34,160.69Z"/></g></g></g></svg>