<?xml version="1.0" encoding="utf-8"?>
<!-- Generator: Adobe Illustrator 19.0.0, SVG Export Plug-In . SVG Version: 6.00 Build 0)  -->
<svg version="1.1" id="Layer_1" xmlns="http://www.w3.org/2000/svg" xmlns:xlink="http://www.w3.org/1999/xlink" x="0px" y="0px"
	 viewBox="200 100 600 400" style="enable-background:new 0 0 960 560;" xml:space="preserve">
<style type="text/css">
	.st0{fill:url(#XMLID_2_);}
	.st1{fill:url(#XMLID_3_);}
	.st2{fill:url(#XMLID_4_);}
	.st3{opacity:0.2;}
	.st4{fill:url(#XMLID_5_);}
	.st5{fill:#FF5252;}
	.st6{fill:#F6B9AD;}
	.st7{opacity:0.2;fill:#FFFFFF;enable-background:new    ;}
	.st8{fill:#FFFFFF;}
	.st9{fill:#263238;}
	.st10{fill:#FCCC63;}
	.st11{fill:url(#XMLID_6_);}
	.st12{fill:#CA7070;}
	.st13{fill:#38C190;}
	.st14{fill:#5FA6CE;}
	.st15{fill:#6C63FF;}
	.st16{fill:#985454;}
	.st17{opacity:0.7;fill:#5FA6CE;enable-background:new    ;}
</style>
<linearGradient id="XMLID_2_" gradientUnits="userSpaceOnUse" x1="436.5843" y1="169.8795" x2="538.1442" y2="271.4394">
	<stop  offset="0" style="stop-color:#CCE0F4"/>
	<stop  offset="0" style="stop-color:#C3DBF2"/>
	<stop  offset="0" style="stop-color:#A9CEEB"/>
	<stop  offset="0" style="stop-color:#80B8E0"/>
	<stop  offset="0" style="stop-color:#469AD1"/>
	<stop  offset="0" style="stop-color:#0075BE"/>
	<stop  offset="0" style="stop-color:#3F76FF"/>
	<stop  offset="0.2992" style="stop-color:#2B9FDD"/>
	<stop  offset="0.5909" style="stop-color:#1ABFC2"/>
	<stop  offset="0.8345" style="stop-color:#11D3B2"/>
	<stop  offset="1" style="stop-color:#0DDAAC"/>
</linearGradient>
<path id="XMLID_511_" class="st0" d="M553.1,236.3l-10.8-5.4c1.3-6.8,1.3-13.7,0-20.4l10.8-5.4c3.2-1.9,4.5-5.9,3.2-9.4
	c-2.9-7.8-8.3-14.9-13.5-21.2c-2.4-2.9-6.5-3.6-9.7-1.7l-9.4,5.4c-5.1-4.4-11.1-7.9-17.7-10.2v-10.8c0-3.8-2.7-6.9-6.4-7.6
	c-8.2-1.4-16.5-1.3-24.5,0c-3.7,0.6-6.3,3.9-6.3,7.6V168c-6.5,2.3-12.5,5.8-17.7,10.2l-9.4-5.4c-3.2-1.9-7.4-1.2-9.7,1.7
	c-5.2,6.2-10.7,13.4-13.6,21.2c-1.3,3.5,0.1,7.5,3.4,9.3l10.7,5.4c-1.3,6.8-1.3,13.7,0,20.4l-10.7,5.4c-3.2,1.9-4.7,5.9-3.4,9.4
	c2.9,7.8,8.4,14.9,13.6,21.1c2.4,2.9,6.5,3.6,9.7,1.7l9.4-5.4c5.1,4.4,11.1,7.9,17.7,10.2v10.8c0,3.8,2.7,6.9,6.4,7.6
	c8.2,1.4,16.5,1.4,24.4,0c3.7-0.6,6.3-3.9,6.3-7.6v-10.8c6.5-2.3,12.5-5.8,17.7-10.2l9.4,5.4c3.2,1.9,7.4,1.2,9.7-1.7
	c5.2-6.2,10.8-13.4,13.7-21.2C557.7,242.1,556.3,238.1,553.1,236.3z M519.2,252.9c-46.2,35.5-98.9-17.2-63.4-63.4
	C502,153.9,554.8,206.7,519.2,252.9z"/>
<linearGradient id="XMLID_3_" gradientUnits="userSpaceOnUse" x1="567.4931" y1="147.268" x2="669.053" y2="248.8279">
	<stop  offset="0" style="stop-color:#CCE0F4"/>
	<stop  offset="0" style="stop-color:#C3DBF2"/>
	<stop  offset="0" style="stop-color:#A9CEEB"/>
	<stop  offset="0" style="stop-color:#80B8E0"/>
	<stop  offset="0" style="stop-color:#469AD1"/>
	<stop  offset="0" style="stop-color:#0075BE"/>
	<stop  offset="0" style="stop-color:#3F76FF"/>
	<stop  offset="0.2992" style="stop-color:#2B9FDD"/>
	<stop  offset="0.5909" style="stop-color:#1ABFC2"/>
	<stop  offset="0.8345" style="stop-color:#11D3B2"/>
	<stop  offset="1" style="stop-color:#0DDAAC"/>
</linearGradient>
<path id="XMLID_505_" class="st1" d="M684,213.7l-10.8-5.4c1.3-6.8,1.3-13.7,0-20.4l10.8-5.4c3.2-1.9,4.5-5.9,3.2-9.4
	c-2.9-7.8-8.3-14.9-13.5-21.2c-2.4-2.9-6.5-3.6-9.7-1.7l-9.4,5.4c-5.1-4.4-11.1-7.9-17.7-10.2v-10.8c0-3.8-2.7-6.9-6.4-7.6
	c-8.2-1.4-16.5-1.3-24.5,0c-3.7,0.6-6.3,3.9-6.3,7.6v10.8c-6.5,2.3-12.5,5.8-17.7,10.2l-9.4-5.4c-3.2-1.9-7.4-1.2-9.7,1.7
	c-5.2,6.2-10.7,13.4-13.6,21.2c-1.3,3.5,0.1,7.5,3.4,9.3l10.7,5.4c-1.3,6.8-1.3,13.7,0,20.4l-10.7,5.4c-3.2,1.9-4.7,5.9-3.4,9.4
	c2.9,7.8,8.4,14.9,13.6,21.1c2.4,2.9,6.5,3.6,9.7,1.7l9.4-5.4c5.1,4.4,11.1,7.9,17.7,10.2v10.8c0,3.8,2.7,6.9,6.4,7.6
	c8.2,1.4,16.5,1.4,24.4,0c3.7-0.6,6.3-3.9,6.3-7.6v-10.8c6.5-2.3,12.5-5.8,17.7-10.2l9.4,5.4c3.2,1.9,7.4,1.2,9.7-1.7
	c5.2-6.2,10.8-13.4,13.7-21.2C688.6,219.5,687.2,215.5,684,213.7z M650.1,230.2c-46.2,35.5-98.9-17.2-63.4-63.4
	C632.9,131.3,685.7,184,650.1,230.2z"/>
<linearGradient id="XMLID_4_" gradientUnits="userSpaceOnUse" x1="303.2953" y1="146.0779" x2="404.8552" y2="247.6378">
	<stop  offset="0" style="stop-color:#CCE0F4"/>
	<stop  offset="0" style="stop-color:#C3DBF2"/>
	<stop  offset="0" style="stop-color:#A9CEEB"/>
	<stop  offset="0" style="stop-color:#80B8E0"/>
	<stop  offset="0" style="stop-color:#469AD1"/>
	<stop  offset="0" style="stop-color:#0075BE"/>
	<stop  offset="0" style="stop-color:#3F76FF"/>
	<stop  offset="0.2992" style="stop-color:#2B9FDD"/>
	<stop  offset="0.5909" style="stop-color:#1ABFC2"/>
	<stop  offset="0.8345" style="stop-color:#11D3B2"/>
	<stop  offset="1" style="stop-color:#0DDAAC"/>
</linearGradient>
<path id="XMLID_502_" class="st2" d="M419.8,212.5l-10.8-5.4c1.3-6.8,1.3-13.7,0-20.4l10.8-5.4c3.2-1.9,4.5-5.9,3.2-9.4
	c-2.9-7.8-8.3-14.9-13.5-21.2c-2.4-2.9-6.5-3.6-9.7-1.7l-9.4,5.4c-5.1-4.4-11.1-7.9-17.7-10.2v-10.8c0-3.8-2.7-6.9-6.4-7.6
	c-8.2-1.4-16.5-1.3-24.5,0c-3.7,0.6-6.3,3.9-6.3,7.6v10.8c-6.5,2.3-12.5,5.8-17.7,10.2l-9.4-5.4c-3.2-1.9-7.4-1.2-9.7,1.7
	c-5.2,6.2-10.7,13.4-13.6,21.2c-1.3,3.5,0.1,7.5,3.4,9.3l10.7,5.4c-1.3,6.8-1.3,13.7,0,20.4l-10.7,5.4c-3.2,1.9-4.7,5.9-3.4,9.4
	c2.9,7.8,8.4,14.9,13.6,21.1c2.4,2.9,6.5,3.6,9.7,1.7l9.4-5.4c5.1,4.4,11.1,7.9,17.7,10.2v10.8c0,3.8,2.7,6.9,6.4,7.6
	c8.2,1.4,16.5,1.4,24.4,0c3.7-0.6,6.3-3.9,6.3-7.6v-10.8c6.5-2.3,12.5-5.8,17.7-10.2l9.4,5.4c3.2,1.9,7.4,1.2,9.7-1.7
	c5.2-6.2,10.8-13.4,13.7-21.2C424.4,218.3,423,214.3,419.8,212.5z M385.9,229.1c-46.2,35.5-98.9-17.2-63.4-63.4
	C368.7,130.1,421.5,182.9,385.9,229.1z"/>
<g id="XMLID_473_">
	<g id="XMLID_500_" class="st3">
		
			<linearGradient id="XMLID_5_" gradientUnits="userSpaceOnUse" x1="461.17" y1="208.6147" x2="461.17" y2="208.9043" gradientTransform="matrix(1 0 0 -1 -167.1 446.03)">
			<stop  offset="0" style="stop-color:#808080;stop-opacity:0.25"/>
			<stop  offset="0.54" style="stop-color:#808080;stop-opacity:0.12"/>
			<stop  offset="1" style="stop-color:#808080;stop-opacity:0.1"/>
		</linearGradient>
		<path id="XMLID_501_" class="st4" d="M294.2,237.4l0.1-0.3C294.3,237.2,293.3,237,294.2,237.4z"/>
	</g>
	<path id="XMLID_497_" class="st5" d="M297.1,244.5c0,0-13.9,43.7,9.4,68l6.7-5.1c0,0-13.7-47.7-6.1-59
		C293.6,243.8,297.1,244.5,297.1,244.5z"/>
	<path id="XMLID_496_" class="st6" d="M306.7,248.4c0,0,2.8-2.4,0-6.6c-2.8-4.2-8-0.9-8-0.9s-1.9,6.1,0,7.5
		C300.6,249.8,306.7,248.4,306.7,248.4z"/>
	<path id="XMLID_495_" class="st6" d="M318.8,304.8h-1.1c-3.3,0-6-2.7-6-6v-7.5c0-3.3,2.7-6,6-6h1.1c3.3,0,6,2.7,6,6v7.5
		C324.8,302.1,322.1,304.8,318.8,304.8z"/>
	<circle id="XMLID_493_" class="st6" cx="318" cy="277.5" r="14.6"/>
	<path id="XMLID_492_" class="st7" d="M323.2,298.2v-6.3c0-0.5-0.1-0.9-0.2-1.4c7.2-3.7,10-12.5,6.3-19.6c-2.4-4.6-7-7.6-12.1-7.9
		h0.9c8,0,14.5,6.6,14.5,14.6c0,5.4-3,10.4-7.8,12.9c0.1,0.5,0.2,0.9,0.2,1.4v6.3c0,3.6-2.9,6.6-6.5,6.6c-0.3,0-0.6,0-0.9-0.1
		C320.7,304.3,323.1,301.5,323.2,298.2z"/>
	<path id="XMLID_491_" class="st5" d="M303.2,350.1c0,0,28.1,3.2,29.1,0c3.4-10.3-5.6-21.3-1.1-26.8c4.7-5.6,1.1-13.2,1.1-13.2
		c0-8-6.5-14.6-14.6-14.6l0,0c-8,0-14.6,6.5-14.6,14.6V350.1z"/>
	<path id="XMLID_490_" class="st7" d="M331.2,323.4c4.7-5.6,1.1-13.2,1.1-13.2c0-8-6.5-14.6-14.6-14.6c-0.3,0-0.6,0-0.9,0.1
		c7.7,0.5,13.6,6.8,13.6,14.5c0,0,3.5,7.6-1.1,13.2c-4.5,5.4,4.5,16.5,1.1,26.8c-0.3,1-3.2,1.4-7.1,1.4c4.8,0.1,8.6-0.3,8.9-1.4
		C335.7,339.8,326.7,328.8,331.2,323.4z"/>
	<path id="XMLID_489_" class="st6" d="M326.4,349.2L326.4,349.2c10.3,14.5,14.8,36.5,11.9,57.6l-0.1,0.6h-8.8c0,0,2.7-8,0-22.1
		c-1.7-8.4-6.4-16-13.3-21.1l-8.4,43.2h-8.1l8.1-58.3H326.4z"/>
	<path id="XMLID_488_" class="st6" d="M375.8,265.4c0,0,3.4-1.4,1.9-6.3c-1.5-4.9-7.4-3.2-7.4-3.2s-3.6,5.3-2.2,7.2
		C369.5,264.9,375.8,265.4,375.8,265.4z"/>
	<path id="XMLID_487_" class="st5" d="M325.9,312.5c0,0,43.7-14.1,49.9-47.1l-8.1-2.5c0,0-32.1,35.9-45.7,36.1
		C308.4,299.3,325.9,312.5,325.9,312.5z"/>
	<path id="XMLID_486_" class="st7" d="M374.3,265.4l1.3,0.4c-6.2,33-49.8,47.2-49.8,47.2l-0.8-0.6
		C330.1,310.6,368.5,296.2,374.3,265.4z"/>
	<g id="XMLID_483_" class="st3">
		<path id="XMLID_485_" class="st8" d="M314.2,364.2l-8.5,43.2h1.9l8.2-42C315.3,365,314.8,364.6,314.2,364.2z"/>
		<path id="XMLID_484_" class="st8" d="M326.4,349.2h-1.9c10.3,14.5,14.8,36.5,11.9,57.6l-0.1,0.6h1.9l0.1-0.6
			C341.2,385.7,336.6,363.7,326.4,349.2z"/>
	</g>
	<path id="XMLID_482_" class="st7" d="M374.8,265.1c0,0,3.4-1.4,1.9-6.3c-0.4-1.4-1.4-2.5-2.7-3.1c1.7,0.3,3.2,1.6,3.6,3.3
		c1.5,4.9-1.9,6.3-1.9,6.3c-1.9-0.1-3.7-0.5-5.5-1C371.8,264.7,373.3,265,374.8,265.1z"/>
	<path id="XMLID_481_" class="st9" d="M303.2,348.5l-17.7,37.3c10.3,0.5,20.6,1.8,30.8,3.7c19.6,3.7,28.9-5.6,28.9-5.6l-12.6-35.4
		L303.2,348.5z"/>
	<path id="XMLID_480_" class="st5" d="M307.9,407.3c0,0,9.4,1.9,7.5,5.6h-16.8l0.9-5.6H307.9z"/>
	<path id="XMLID_479_" class="st5" d="M337.7,407.3c0,0,9.4,1.9,7.5,5.6h-16.8l0.9-5.6H337.7z"/>
	<path id="XMLID_478_" class="st10" d="M331.2,265.5c0,0-22.4,31.7-12.1,44.7l-40.1-0.9C279,309.3,290.2,237.6,331.2,265.5z"/>
	<path id="XMLID_477_" class="st7" d="M331.2,265.5c-5.8-3.9-11-5.9-15.6-6.4c3.9,1.2,7.6,3.1,11,5.4c0,0-22.4,31.7-12.1,44.8
		l-35.3-0.9c-0.1,0.5-0.1,0.9-0.1,0.9l40.1,0.9C308.8,297.2,331.2,265.5,331.2,265.5z"/>
	<path id="XMLID_476_" class="st7" d="M332.6,348.5h-2.8l12.6,35.4c0,0-6,6-18.6,6.4c14.4,0.5,21.3-6.4,21.3-6.4L332.6,348.5z"/>
	<path id="XMLID_475_" class="st7" d="M307.9,407.3H306c0,0,9.4,1.9,7.5,5.6h1.8C317.2,409.2,307.9,407.3,307.9,407.3z"/>
	<path id="XMLID_474_" class="st7" d="M337.7,407.3h-1.9c0,0,9.4,1.9,7.5,5.6h1.9C347,409.2,337.7,407.3,337.7,407.3z"/>
</g>
<g id="XMLID_435_">
	<g id="XMLID_471_" class="st3">
		
			<linearGradient id="XMLID_6_" gradientUnits="userSpaceOnUse" x1="949.0472" y1="592.3528" x2="949.0472" y2="592.5913" gradientTransform="matrix(0.9931 -0.1174 -0.1174 -0.9931 -223.2619 941.8503)">
			<stop  offset="0" style="stop-color:#808080;stop-opacity:0.25"/>
			<stop  offset="0.54" style="stop-color:#808080;stop-opacity:0.12"/>
			<stop  offset="1" style="stop-color:#808080;stop-opacity:0.1"/>
		</linearGradient>
		<path id="XMLID_472_" class="st11" d="M649.5,242l0.1,0.2C650.3,241.8,649.5,242,649.5,242z"/>
	</g>
	<path id="XMLID_466_" class="st12" d="M588.2,258.6c0,0-3.1-2-0.8-6.5c2.3-4.5,7.8-1.9,7.8-1.9s2.6,5.9,0.9,7.5
		C594.4,259.3,588.2,258.6,588.2,258.6z"/>
	<path id="_x34_d99488d-df05-4ea4-b0bc-86897bea43e0_1_" class="st5" d="M635.5,411.4l-12.9,1.5c0.2,1.2-0.1,2.4-0.9,3.4
		c-1.5,2.2-4.7,5-3,5.7l17.7-2.1L635.5,411.4z"/>
	<path id="XMLID_465_" class="st7" d="M622.7,416.2c0.8-1,1.1-2.2,0.9-3.4l-0.9,0.1c0.2,1.2-0.1,2.4-0.9,3.4c-1.5,2.2-4.7,5-3,5.7
		l0.9-0.1C618.1,421.3,621.3,418.4,622.7,416.2z"/>
	<path id="_x34_d5dc8b9-511c-4b13-afe4-1a204679192b_1_" class="st5" d="M681,403.3l-11.8,3.4c0.5,1.4,0.5,2.9,0,4.3
		c-1,2.9-3.5,6.8-1.7,7.3l17.1-4.9L681,403.3z"/>
	<path id="XMLID_464_" class="st13" d="M656.3,244.8c0,0,18.9,41.8-1.3,68.6l-7.3-4.3c0,0,8-49-0.9-59.3
		C659.7,243.7,656.3,244.8,656.3,244.8z"/>
	<path id="XMLID_463_" class="st12" d="M647.2,249.7c0,0-3.1-2-0.8-6.5c2.3-4.5,7.8-1.9,7.8-1.9s2.6,5.9,0.9,7.5
		C653.4,250.4,647.2,249.7,647.2,249.7z"/>
	<path id="XMLID_462_" class="st7" d="M670.1,410.9c0.5-1.4,0.5-2.9,0-4.3l10.9-3.1l-0.1-0.1l-11.8,3.4c0.5,1.4,0.5,2.9,0,4.3
		c-1,2.9-3.5,6.8-1.7,7.3l0.7-0.2C666.8,417.3,669.1,413.7,670.1,410.9z"/>
	<path id="XMLID_461_" class="st12" d="M639.6,287.8l1.1-0.1c3.3-0.4,6.3,2,6.7,5.3l0.9,7.4c0.4,3.3-2,6.3-5.3,6.7l-1.1,0.1
		c-3.3,0.4-6.3-2-6.7-5.3l-0.9-7.4C633.9,291.1,636.3,288.1,639.6,287.8z"/>
	<circle id="XMLID_459_" class="st12" cx="639.5" cy="280" r="14.6"/>
	<path id="XMLID_458_" class="st7" d="M636.8,301.1l-0.7-6.3c0-0.5,0-0.9,0-1.4c-7.5-2.8-11.4-11.2-8.5-18.8c1.8-4.8,6-8.3,11.1-9.2
		l-0.9,0.1c-8,1-13.7,8.2-12.7,16.2c0.6,5.4,4.2,10,9.3,11.9c0,0.5,0,0.9,0,1.4l0.7,6.3c0.4,3.6,3.6,6.2,7.2,5.8
		c0.3,0,0.6-0.1,0.9-0.2C639.9,306.8,637.2,304.4,636.8,301.1z"/>
	<path id="XMLID_457_" class="st13" d="M662.7,350.4c0,0-27.5,6.4-29,3.4c-9.9-21.3-4.7-39.7-4.7-39.7c-0.9-8,4.8-15.2,12.8-16.2
		c0,0,0,0,0,0l0,0c8-0.9,15.2,4.8,16.2,12.8c0,0,0,0,0,0L662.7,350.4z"/>
	<path id="XMLID_456_" class="st9" d="M662.7,350.4l19.4,56.4l-12.6,1.5l-18.1-41.4c0,0-15.5,8.9-18.1,23.4s2.6,21.9,2.6,21.9
		l-13.5,1.6l-0.2-0.6c-7-20.4-2.6-43.1,11.6-59.4l0,0"/>
	<path id="XMLID_455_" class="st7" d="M635.4,353.6c-9.9-21.3-4.7-39.7-4.7-39.7c-0.9-7.6,4.3-14.6,11.8-16c-0.3,0-0.6,0-0.9,0.1
		l0,0c-8,0.9-13.7,8.2-12.8,16.2c0,0,0,0,0,0c0,0-5.2,18.4,4.7,39.7c0.5,1.1,4.4,1,9.1,0.3C638.8,354.5,635.8,354.5,635.4,353.6z"/>
	<path id="XMLID_454_" class="st13" d="M628.8,313.9c0,0-40.4-21.7-40.6-55.3l8.4-1c0,0,25.2,41,38.5,43.7
		C648.4,304,628.8,313.9,628.8,313.9z"/>
	<g id="XMLID_451_" class="st3">
		<path id="XMLID_453_" class="st8" d="M651.7,367.8l17.8,40.6l1.9-0.2l-18.1-41.4C653.3,366.9,652.7,367.2,651.7,367.8z"/>
		<path id="XMLID_452_" class="st8" d="M635.6,353.8L635.6,353.8l-1.9,0.2l0,0c-14.2,16.3-18.6,39-11.6,59.4l0.2,0.6l1.9-0.2
			l-0.2-0.6C617,392.7,621.5,370.1,635.6,353.8z"/>
	</g>
	<path id="XMLID_450_" class="st7" d="M589.6,258.9l-1.4,0.2c0.2,33.6,40.6,55.3,40.6,55.3l0.9-0.5
		C625,311.2,589.8,290.2,589.6,258.9z"/>
	<path id="XMLID_449_" class="st9" d="M627.2,274.9c1.2,1.7,1.7,3.7,2.4,5.6c1.4,3.9,4,7.7,7.8,9.4c2.1,0.9,4.4,1.2,6.7,1
		c3.5-0.2,7.1-1.3,9.3-4c1.3-1.8,2.1-4,2.2-6.3c0.7-6.8-2.1-13.5-7.4-17.8c-5.3-4.1-13.1-4.9-19-1.7c-1.1,0.7-2.2,1.3-3.4,1.7
		c-1.8,0.5-3.8,0.1-5.3-1.1c-0.3,1.8,0.8,3.5,2.6,3.8c0.3,0.1,0.7,0.1,1,0c-2,1.3-4.5,1.7-6.9,1.2c1.6,2.6,5,3.5,7.7,2.1
		c-2.5,1.5-5.3,2.4-8.2,2.7c0.6-0.1,1.9,0.9,2.7,1c0.9,0,1.9,0,2.8-0.1C624.2,272.3,626.1,273.2,627.2,274.9z"/>
	<g id="XMLID_443_" class="st3">
		<path id="XMLID_448_" class="st8" d="M624.1,265.6c-1,0.6-2.1,1.1-3.3,1.3c1.5-0.1,3-0.6,4.3-1.4c-1.8,0.2-3.5-1.1-3.7-2.9
			c0-0.1,0-0.2,0-0.3c-0.3-0.2-0.6-0.4-0.9-0.6c-0.3,1.8,0.8,3.5,2.6,3.8C623.4,265.6,623.8,265.6,624.1,265.6z"/>
		<path id="XMLID_447_" class="st8" d="M626.7,262.7c1.2-0.4,2.3-1,3.4-1.7c1.7-0.9,3.5-1.5,5.4-1.8c-2.2,0.2-4.4,0.8-6.4,1.9
			c-1.1,0.7-2.2,1.3-3.4,1.7c-0.2,0.1-0.3,0.1-0.5,0.1C625.8,262.9,626.3,262.9,626.7,262.7z"/>
		<path id="XMLID_446_" class="st8" d="M620.4,272.5c-0.8-0.1-2.1-1.1-2.7-1c2.9-0.3,5.7-1.2,8.2-2.7c-0.6,0.3-1.2,0.5-1.8,0.6
			c-2.3,1.2-4.7,1.9-7.3,2.2c0.6-0.1,1.9,0.9,2.7,1c0.7,0.1,1.3,0.1,2-0.1C621.1,272.5,620.7,272.5,620.4,272.5z"/>
		<path id="XMLID_445_" class="st8" d="M645,290.8c-2.3,0.2-4.6-0.2-6.7-1c-3.8-1.7-6.4-5.5-7.8-9.4c-0.7-1.9-1.2-3.9-2.4-5.6
			c-1.1-1.7-3-2.6-4.9-2.5c-0.5,0-0.9,0.1-1.4,0.1c0.2,0,0.3,0,0.5,0c2-0.1,3.8,0.8,4.9,2.5c1.2,1.7,1.7,3.7,2.4,5.6
			c1.4,3.9,4,7.7,7.8,9.4c2.1,0.9,4.4,1.2,6.7,1c0.5,0,1.1-0.1,1.6-0.2L645,290.8z"/>
		<path id="XMLID_444_" class="st8" d="M623.4,269.4c-2,0.1-3.9-0.8-5.1-2.5c-0.4,0-0.8-0.1-1.1-0.2
			C618.5,268.8,621,269.9,623.4,269.4z"/>
	</g>
	<path id="XMLID_442_" class="st7" d="M589.1,258.5c0,0-3.1-2-0.8-6.5c0.6-1.3,1.8-2.3,3.2-2.6c-1.8,0-3.4,1-4.1,2.6
		c-2.3,4.5,0.8,6.5,0.8,6.5c1.8,0.2,3.7,0.2,5.6,0C592.2,258.7,590.7,258.6,589.1,258.5z"/>
</g>
<g id="XMLID_206_">
	<path id="XMLID_423_" class="st14" d="M412.7,342.5c0,0,31.6-33.3,21.3-65.2l-8.3,1.7c0,0-11.1,46.8-23,53.6
		C390.8,339.2,412.7,342.5,412.7,342.5z"/>
	<path id="XMLID_422_" class="st15" d="M412.7,342.5c0,0,31.6-33.3,21.3-65.2l-8.3,1.7c0,0-11.1,46.8-23,53.6
		C390.8,339.2,412.7,342.5,412.7,342.5z"/>
	<path id="XMLID_421_" class="st7" d="M432.7,278l1.4-0.3c10.3,32-21.3,65.2-21.3,65.2l-1-0.2C415.5,338.7,442.3,307.8,432.7,278z"
		/>
	<path id="XMLID_420_" class="st16" d="M433.6,278.1c0,0,2.3-2.9-1.3-6.4c-3.6-3.6-8,0.7-8,0.7s-0.6,6.4,1.5,7.4
		S433.6,278.1,433.6,278.1z"/>
	<path id="XMLID_419_" class="st8" d="M432.7,278.3c0,0,2.3-2.9-1.3-6.4c-1-1.1-2.4-1.6-3.8-1.4c1.7-0.6,3.5-0.1,4.8,1.2
		c3.6,3.6,1.3,6.4,1.3,6.4c-1.7,0.8-3.5,1.3-5.3,1.7C429.8,279.4,431.3,278.9,432.7,278.3z"/>
	<path id="f4b599d8-1b16-43a9-9308-cf9102d9bdf1_1_" class="st15" d="M427,421.7h13c-0.1,1.2,0.4,2.5,1.2,3.3c1.7,2,5.2,4.4,3.6,5.3
		H427V421.7z"/>
	<path id="XMLID_418_" class="st7" d="M440.2,425c-0.9-0.9-1.3-2.1-1.2-3.3h0.9c-0.1,1.2,0.4,2.5,1.2,3.3c1.7,2,5.2,4.4,3.6,5.3
		h-0.9C445.4,429.4,441.9,427,440.2,425z"/>
	<path id="_x30_e0e20dd-ea7e-4aa3-ac26-380ed6cfbd4b_1_" class="st15" d="M380.8,419l12.1,2c-0.3,1.4-0.1,3,0.6,4.3
		c1.3,2.8,4.3,6.3,2.5,7l-17.6-2.8L380.8,419z"/>
	<path id="XMLID_417_" class="st7" d="M392.6,425.3c-0.7-1.3-0.9-2.8-0.6-4.3l-11.2-1.8V419l12.1,2c-0.3,1.4-0.1,3,0.6,4.3
		c1.3,2.8,4.3,6.3,2.5,7l-0.7-0.1C396.6,431.2,393.8,427.9,392.6,425.3z"/>
	<path id="XMLID_416_" class="st16" d="M408.4,318.9h-1.1c-3.3,0-6-2.7-6-6v-7.5c0-3.3,2.7-6,6-6h1.1c3.3,0,6,2.7,6,6v7.5
		C414.4,316.2,411.7,318.9,408.4,318.9z"/>
	<circle id="XMLID_415_" class="st16" cx="407.6" cy="291.6" r="14.6"/>
	<path id="XMLID_414_" class="st8" d="M412.8,312.3V306c0-0.5-0.1-0.9-0.2-1.4c7.2-3.7,10-12.5,6.3-19.6c-2.4-4.6-7-7.6-12.1-7.9
		h0.9c8,0,14.6,6.5,14.6,14.6c0,5.5-3,10.4-7.9,12.9c0.1,0.5,0.2,0.9,0.2,1.4v6.3c0,3.6-2.9,6.6-6.5,6.6c-0.3,0-0.6,0-0.9-0.1
		C410.3,318.4,412.8,315.6,412.8,312.3z"/>
	<path id="XMLID_413_" class="st15" d="M392.8,364.3c0,0,28.1,3.2,29.1,0c7.3-22.3,0-39.9,0-39.9c0-8-6.5-14.6-14.6-14.6l0,0
		c-8,0-14.5,6.5-14.6,14.5V364.3z"/>
	<path id="XMLID_411_" class="st9" d="M392.8,364.3l-12.7,58.3h12.7l13.2-43.2c0,0,16.5,7.1,20.7,21.1c4.2,14.1,0,22.1,0,22.1h13.6
		l0.1-0.6c4.6-21.1-2.5-43.1-18.5-57.6l0,0"/>
	<path id="XMLID_410_" class="st7" d="M420.3,364.3c7.3-22.3,0-39.9,0-39.9c0-7.7-6-14-13.6-14.5c0.3,0,0.6,0,0.9,0l0,0
		c8,0,14.5,6.5,14.6,14.5c0,0,7.3,17.6,0,39.9c-0.4,1.1-4.2,1.5-9,1.4C417.1,365.6,420,365.2,420.3,364.3z"/>
	<g id="XMLID_407_" class="st3">
		<path id="XMLID_409_" class="st8" d="M405.7,380.3l-12.9,42.4h-1.9l13.2-43.2C404.1,379.5,404.7,379.8,405.7,380.3z"/>
		<path id="XMLID_408_" class="st8" d="M420.1,364.5h1.9c16,14.5,23,36.5,18.5,57.6l-0.1,0.6h-1.9l0.1-0.6
			C443.1,401,436.1,379,420.1,364.5z"/>
	</g>
	<path id="XMLID_403_" class="st15" d="M411,324.1c0,0,42.5-17.2,46.3-50.6l-8.2-1.9c0,0-29.5,38.1-43,39.3
		C392.6,312.1,411,324.1,411,324.1z"/>
	<path id="XMLID_402_" class="st7" d="M455.9,273.6l1.4,0.3c-3.8,33.4-46.3,50.6-46.3,50.6l-0.9-0.6
		C415.1,321.8,452.3,304.7,455.9,273.6z"/>
	<path id="XMLID_401_" class="st16" d="M456.7,274c0,0,3.3-1.7,1.5-6.4c-1.8-4.8-7.6-2.7-7.6-2.7s-3.2,5.5-1.7,7.3
		C450.3,274,456.7,274,456.7,274z"/>
	<path id="XMLID_399_" class="st8" d="M455.7,273.8c0,0,3.3-1.7,1.5-6.4c-0.5-1.4-1.5-2.4-2.9-2.9c1.8,0.2,3.3,1.4,3.8,3.1
		c1.8,4.8-1.5,6.4-1.5,6.4c-1.9,0-3.7-0.2-5.5-0.6C452.6,273.7,454.2,273.8,455.7,273.8z"/>
	<path id="XMLID_398_" class="st9" d="M408.7,286.8l-0.9,19.6h-20.6V296c0-20.9,22.1-28.8,34.5-12
		C422.1,284.4,408.7,286.8,408.7,286.8z"/>
	<path id="XMLID_245_" class="st7" d="M404.1,275c5.2,0.4,10.6,3.3,14.9,9c0.3,0.4-13.1,2.8-13.1,2.8l-0.9,19.6h2.8l0.9-19.6
		c0,0,13.4-2.4,13.1-2.8C416.7,277.3,410.2,274.5,404.1,275z"/>
</g>
<path id="XMLID_738_" class="st17" d="M636,179.3h-36.9c-2.3,0-4.3,1.9-4.3,4.3v5.7c0,0.8,0.6,1.4,1.4,1.4h1.4v24.1
	c0,2.3,1.9,4.3,4.3,4.3h31.2c2.3,0,4.3-1.9,4.3-4.3v-24.1h1.4c0.8,0,1.4-0.6,1.4-1.4v-5.7C640.3,181.2,638.4,179.3,636,179.3z
	 M634.6,214.8c0,0.8-0.6,1.4-1.4,1.4H602c-0.8,0-1.4-0.6-1.4-1.4v-24.1h34V214.8z M637.5,187.8h-39.7v-4.3c0-0.8,0.6-1.4,1.4-1.4
	H636c0.8,0,1.4,0.6,1.4,1.4V187.8z M613,199.2h9.2c0.6,0,1.1-0.5,1.1-1.1v-0.7c0-0.6-0.5-1.1-1.1-1.1H613c-0.6,0-1.1,0.5-1.1,1.1
	v0.7C611.9,198.7,612.4,199.2,613,199.2z"/>
<path id="XMLID_739_" class="st17" d="M370.6,183.1l-7.8-7.8c-0.8-0.8-2-1.3-3.2-1.3h-19.1c-2.5,0-4.5,2-4.5,4.5v38.9
	c0,2.5,2,4.5,4.5,4.5h26.9c2.5,0,4.5-2,4.5-4.5v-31.1C371.9,185.1,371.4,184,370.6,183.1z M368.4,185.2c0.2,0.2,0.3,0.4,0.4,0.7
	h-8.9V177c0.3,0.1,0.5,0.2,0.7,0.4L368.4,185.2z M367.4,218.9h-26.9c-0.8,0-1.5-0.7-1.5-1.5v-38.9c0-0.8,0.7-1.5,1.5-1.5h16.5v9.7
	c0,1.2,1,2.2,2.2,2.2h9.7v28.4C368.9,218.2,368.2,218.9,367.4,218.9z M356.5,197.1l2.8,2.8c0.2,0.2,0.2,0.4,0,0.6L348.7,211
	l-2.8,0.4c-0.6,0.1-1-0.4-1-1l0.4-2.8l10.5-10.5C356,196.9,356.3,196.9,356.5,197.1L356.5,197.1z M362.5,197.2l-1.5,1.5
	c-0.2,0.2-0.4,0.2-0.6,0l-2.8-2.8c-0.2-0.2-0.2-0.4,0-0.6l1.5-1.5c0.6-0.6,1.4-0.6,2,0l1.4,1.4C363,195.8,363,196.6,362.5,197.2z"/>
<path id="XMLID_13_" class="st17" d="M502.4,229.5l7.9-7.3c1.7-1.5,1.1-4.1-0.8-5l-7.1-3.1v-11.3c0-0.8-0.7-1.5-1.5-1.5h-4.5v-3.7
	c0-1.2-1-2.2-2.2-2.2h-13.4c-1.2,0-2.2,1-2.2,2.2v3.7H474c-0.8,0-1.5,0.7-1.5,1.5v11.3l-7.1,3c-2.1,0.9-2.5,3.5-0.9,5l8,7.3
	c0,3.4-4.7,10.6-13.8,10.6c-0.6,0-1.1,0.5-1.1,1.1v0.7c0,0.6,0.5,1.1,1.1,1.1c6.1,0,10.9-2.7,14-6.8c1,3.9,4.5,6.8,8.7,6.8h11.9
	c4.2,0,7.7-2.9,8.7-6.8c3.1,4.1,8,6.8,14,6.8c0.6,0,1.1-0.5,1.1-1.1v-0.7c0-0.6-0.5-1.1-1.1-1.1
	C507.4,240.1,502.4,233.1,502.4,229.5z M481.5,198.3h11.9v3h-11.9V198.3z M475.5,204.3h23.9v8.6l-10.8-4.6c-0.8-0.3-1.6-0.3-2.3,0
	l-10.8,4.6V204.3z M499.4,228.2v6c0,3.3-2.7,6-6,6h-11.9c-3.3,0-6-2.7-6-6v-6l-8.9-8.2l20.9-8.9l20.9,8.9L499.4,228.2z"/>
</svg>
