<svg xmlns="http://www.w3.org/2000/svg" viewBox="0 0 250 250"><defs><style>.cls-1{fill:#0b6ede;}.cls-2{fill:#fff;}</style></defs><title>4.5</title><g id="レイヤー_2" data-name="レイヤー 2"><g id="レイヤー_1-2" data-name="レイヤー 1"><circle class="cls-1" cx="125" cy="125" r="125"/><path class="cls-2" d="M145.2,139.25a2.29,2.29,0,0,0-2.29,2.29v15.78a11.45,11.45,0,0,1-11.44,11.44H106.78A2.29,2.29,0,0,0,104.5,171v4.55L99,170.13a2.29,2.29,0,0,0-2.1-1.37H82.07a11.45,11.45,0,0,1-11.44-11.44V122.1a11.45,11.45,0,0,1,11.44-11.44h23.1a2.29,2.29,0,1,0,0-4.57H82.07a16,16,0,0,0-16,16v35.22a16,16,0,0,0,16,16H95.76l9.39,9.39a2.29,2.29,0,0,0,3.9-1.62v-7.78h22.41a16,16,0,0,0,16-16V141.54A2.29,2.29,0,0,0,145.2,139.25Z"/><path class="cls-2" d="M149.92,66.29h-5.79a33.24,33.24,0,1,0,0,66.49h5.79a33.31,33.31,0,0,0,8.44-1.08l8.55,8.55a2.29,2.29,0,0,0,3.9-1.62V125.39a33.56,33.56,0,0,0,8.74-10.77,32.89,32.89,0,0,0,3.61-15.08A33.28,33.28,0,0,0,149.92,66.29Zm17.23,56.16a2.29,2.29,0,0,0-.91,1.83v8.83l-5.6-5.59a2.29,2.29,0,0,0-2.29-.57,28.68,28.68,0,0,1-8.43,1.26h-5.79a28.67,28.67,0,1,1,0-57.34h5.79a28.67,28.67,0,0,1,17.23,51.58Z"/><path class="cls-2" d="M157.33,91.32a9.71,9.71,0,0,0-9-9,9.61,9.61,0,0,0-7.29,2.58A9.72,9.72,0,0,0,138,92a2.29,2.29,0,0,0,4.57,0A5.11,5.11,0,0,1,148,86.9,5.11,5.11,0,0,1,148.79,97a4.33,4.33,0,0,0-3.41,4.24v5.49a2.29,2.29,0,1,0,4.57,0v-5.31A9.63,9.63,0,0,0,157.33,91.32Z"/><path class="cls-2" d="M149.29,114.15a2.29,2.29,0,1,0,.67,1.62A2.3,2.3,0,0,0,149.29,114.15Z"/><path class="cls-2" d="M129,137.19H80.7a2.29,2.29,0,1,0,0,4.57H129a2.29,2.29,0,0,0,0-4.57Z"/><path class="cls-2" d="M130.58,150.67a2.29,2.29,0,1,0,.67,1.62A2.3,2.3,0,0,0,130.58,150.67Z"/><path class="cls-2" d="M120,150H80.7a2.29,2.29,0,1,0,0,4.57H120a2.29,2.29,0,1,0,0-4.57Z"/><path class="cls-2" d="M114.09,124.38H80.7a2.29,2.29,0,1,0,0,4.57h33.39a2.29,2.29,0,0,0,0-4.57Z"/></g></g></svg>