<svg id="Layer_1" xmlns="http://www.w3.org/2000/svg" viewBox="150 30 700 500"><style>.st0{fill:none;stroke:#e0e0e0;stroke-width:10;stroke-linecap:round}.st0,.st10,.st11,.st9{stroke-miterlimit:10}.st9{stroke-linecap:round;fill:#fff;stroke:#fff;stroke-width:6}.st10,.st11{fill:none;stroke:#0b85d3;stroke-width:3}.st11{stroke:#e1e1e1;stroke-linecap:round}.st12{fill:#e1e1e1}.st13,.st15{fill:none;stroke-linecap:round}.st13{stroke-miterlimit:10;stroke:#e1e1e1;stroke-width:6}.st15{stroke:#c4c4c4;stroke-width:10;stroke-linejoin:round}</style><path id="XMLID_91_" class="st0" d="M365.9 202s44 26.4 46 89"/><linearGradient id="XMLID_2_" gradientUnits="userSpaceOnUse" x1="265.036" y1="195.484" x2="304.582" y2="235.03"><stop offset="0" stop-color="#cce0f4"/><stop offset="0" stop-color="#c3dbf2"/><stop offset="0" stop-color="#a9ceeb"/><stop offset="0" stop-color="#80b8e0"/><stop offset="0" stop-color="#469ad1"/><stop offset="0" stop-color="#0075be"/><stop offset="0" stop-color="#3f76ff"/><stop offset=".299" stop-color="#2b9fdd"/><stop offset=".591" stop-color="#1abfc2"/><stop offset=".835" stop-color="#11d3b2"/><stop offset="1" stop-color="#0ddaac"/></linearGradient><path id="XMLID_719_" d="M305.9 201.7h-18.1l-6-6h-15.1c-2.5 0-4.5 2-4.5 4.5v27.1c0 2.5 2 4.5 4.5 4.5h39.2c2.5 0 4.5-2 4.5-4.5v-21.1c0-2.5-2-4.5-4.5-4.5z" opacity=".7" fill="url(#XMLID_2_)"/><path id="XMLID_564_" fill="#e6e6e6" d="M297.7 289h385.5v220H297.7z"/><linearGradient id="XMLID_3_" gradientUnits="userSpaceOnUse" x1="584.846" y1="139.281" x2="626.816" y2="181.251"><stop offset="0" stop-color="#cce0f4"/><stop offset="0" stop-color="#c3dbf2"/><stop offset="0" stop-color="#a9ceeb"/><stop offset="0" stop-color="#80b8e0"/><stop offset="0" stop-color="#469ad1"/><stop offset="0" stop-color="#0075be"/><stop offset="0" stop-color="#3f76ff"/><stop offset=".299" stop-color="#2b9fdd"/><stop offset=".591" stop-color="#1abfc2"/><stop offset=".835" stop-color="#11d3b2"/><stop offset="1" stop-color="#0ddaac"/></linearGradient><path id="XMLID_558_" d="M611 128.7c-18 0-32.6 11.8-32.6 26.5 0 6.3 2.7 12.1 7.3 16.6-1.6 6.4-6.9 12.1-7 12.2-.3.3-.4.7-.2 1.1s.5.6.9.6c8.4 0 14.8-4 17.9-6.5 4.2 1.6 8.8 2.5 13.7 2.5 18 0 32.6-11.8 32.6-26.5S629 128.7 611 128.7z" fill="url(#XMLID_3_)"/><linearGradient id="XMLID_4_" gradientUnits="userSpaceOnUse" x1="297.827" y1="137.863" x2="360.952" y2="200.988"><stop offset="0" stop-color="#cce0f4"/><stop offset="0" stop-color="#c3dbf2"/><stop offset="0" stop-color="#a9ceeb"/><stop offset="0" stop-color="#80b8e0"/><stop offset="0" stop-color="#469ad1"/><stop offset="0" stop-color="#0075be"/><stop offset="0" stop-color="#3f76ff"/><stop offset=".299" stop-color="#2b9fdd"/><stop offset=".591" stop-color="#1abfc2"/><stop offset=".835" stop-color="#11d3b2"/><stop offset="1" stop-color="#0ddaac"/></linearGradient><path id="XMLID_708_" d="M373.6 179.6h-2v-13.4c0-1.6-.6-3.1-1.7-4.2l-12.4-12.4c-1.1-1.1-2.6-1.7-4.2-1.7h-5.5V142c0-3.3-2.7-5.9-6-5.9h-39.7c-3.3 0-6 2.7-6 5.9v39.7c0 3.3 2.7 5.9 6 5.9h2c0 6.6 5.3 11.9 11.9 11.9s11.9-5.3 11.9-11.9h15.9c0 6.6 5.3 11.9 11.9 11.9s11.9-5.3 11.9-11.9h6c1.1 0 2-.9 2-2v-4c-.1-1.1-1-2-2-2zM316 193.5c-3.3 0-6-2.7-6-5.9s2.7-5.9 6-5.9 5.9 2.7 5.9 5.9-2.6 5.9-5.9 5.9zm39.7 0c-3.3 0-5.9-2.7-5.9-5.9s2.7-5.9 5.9-5.9c3.3 0 6 2.7 6 5.9s-2.7 5.9-6 5.9zm9.9-25.8h-17.9v-13.9h5.5l12.4 12.4v1.5z" fill="url(#XMLID_4_)"/><linearGradient id="XMLID_5_" gradientUnits="userSpaceOnUse" x1="637.793" y1="196.084" x2="690.822" y2="249.112"><stop offset="0" stop-color="#cce0f4"/><stop offset="0" stop-color="#c3dbf2"/><stop offset="0" stop-color="#a9ceeb"/><stop offset="0" stop-color="#80b8e0"/><stop offset="0" stop-color="#469ad1"/><stop offset="0" stop-color="#0075be"/><stop offset="0" stop-color="#3f76ff"/><stop offset=".299" stop-color="#2b9fdd"/><stop offset=".591" stop-color="#1abfc2"/><stop offset=".835" stop-color="#11d3b2"/><stop offset="1" stop-color="#0ddaac"/></linearGradient><path id="XMLID_712_" d="M684.5 224.7l8-8c1.9-1.9 1.1-5.2-1.5-6.1l-4.8-1.5v-16c0-2-1.6-3.7-3.7-3.7h-7.3v-4.6c0-1.5-1.2-2.7-2.7-2.7H656c-1.5 0-2.7 1.2-2.7 2.7v4.6H646c-2 0-3.7 1.6-3.7 3.7v16l-4.8 1.5c-2.6.8-3.4 4.1-1.5 6.1l8 8c-2 5-6.6 8.6-13.7 8.6-1.5 0-2.7 1.2-2.7 2.7v1.8c0 1.5 1.2 2.7 2.7 2.7 7 0 12.3-2.4 16.4-6.8 1.6 4 5.6 6.8 10.2 6.8h14.6c4.6 0 8.5-2.8 10.2-6.8 4.1 4.4 9.4 6.8 16.4 6.8 1.5 0 2.7-1.2 2.7-2.7V236c0-1.5-1.2-2.7-2.7-2.7-6.9 0-11.5-3.5-13.6-8.6zm-34.8-28H679v10l-13.5-4.3c-.7-.2-1.5-.2-2.2 0l-13.5 4.3v-10z" fill="url(#XMLID_5_)"/><linearGradient id="XMLID_6_" gradientUnits="userSpaceOnUse" x1="516.492" y1="189.615" x2="554.706" y2="227.829"><stop offset="0" stop-color="#cce0f4"/><stop offset="0" stop-color="#c3dbf2"/><stop offset="0" stop-color="#a9ceeb"/><stop offset="0" stop-color="#80b8e0"/><stop offset="0" stop-color="#469ad1"/><stop offset="0" stop-color="#0075be"/><stop offset="0" stop-color="#3f76ff"/><stop offset=".299" stop-color="#2b9fdd"/><stop offset=".591" stop-color="#1abfc2"/><stop offset=".835" stop-color="#11d3b2"/><stop offset="1" stop-color="#0ddaac"/></linearGradient><path id="XMLID_716_" d="M515.8 227.1c1.6 0 2.8 1.3 2.8 2.8h34c0-1.6 1.3-2.8 2.8-2.8v-25.5h-39.6v25.5zm14.1-18.7c.6 0 1.1-.5 1.1-1.1h9.2c0 .6.5 1.1 1.1 1.1v.7c-.6 0-1.1.5-1.1 1.1H531c0-.6-.5-1.1-1.1-1.1v-.7zm25.5-18.1h-39.6c0 1.6-1.3 2.8-2.8 2.8v4.2c.8 0 1.4.6 1.4 1.4h42.5c0-.8.6-1.4 1.4-1.4v-4.2c-1.6.1-2.9-1.2-2.9-2.8z" opacity=".7" fill="url(#XMLID_6_)"/><linearGradient id="XMLID_7_" gradientUnits="userSpaceOnUse" x1="410.224" y1="66.353" x2="487.52" y2="143.649"><stop offset="0" stop-color="#cce0f4"/><stop offset="0" stop-color="#c3dbf2"/><stop offset="0" stop-color="#a9ceeb"/><stop offset="0" stop-color="#80b8e0"/><stop offset="0" stop-color="#469ad1"/><stop offset="0" stop-color="#0075be"/><stop offset="0" stop-color="#3f76ff"/><stop offset=".299" stop-color="#2b9fdd"/><stop offset=".591" stop-color="#1abfc2"/><stop offset=".835" stop-color="#11d3b2"/><stop offset="1" stop-color="#0ddaac"/></linearGradient><path id="XMLID_732_" d="M468.4 83.8c-3.2-19.7-10.7-33.5-19.5-33.5s-16.3 13.8-19.5 33.5h39zM427.7 105c0 4.9.3 9.6.7 14.1h40.8c.5-4.5.7-9.2.7-14.1s-.3-9.6-.7-14.1h-40.8c-.4 4.5-.7 9.2-.7 14.1zm71.6-21.2c-6.3-15-19.1-26.5-34.8-31.2 5.4 7.5 9.1 18.7 11 31.2h23.8zm-66-31.2c-15.7 4.7-28.5 16.2-34.8 31.2h23.8c1.9-12.5 5.6-23.7 11-31.2zm68.3 38.3h-25.3c.5 4.6.7 9.4.7 14.1s-.3 9.5-.7 14.1h25.3c1.2-4.5 1.9-9.2 1.9-14.1s-.7-9.6-1.9-14.1zM420.7 105c0-4.7.3-9.5.7-14.1h-25.3c-1.2 4.5-1.9 9.2-1.9 14.1s.7 9.6 1.9 14.1h25.3c-.5-4.6-.7-9.4-.7-14.1zm8.7 21.2c3.2 19.7 10.7 33.5 19.5 33.5s16.3-13.8 19.5-33.5h-39zm35.1 31.2c15.7-4.7 28.5-16.2 34.8-31.2h-23.8c-1.9 12.5-5.6 23.7-11 31.2zm-66-31.2c6.3 15 19.1 26.5 34.8 31.2-5.4-7.5-9.1-18.7-11-31.2h-23.8z" fill="url(#XMLID_7_)"/><path id="XMLID_434_" class="st9" d="M663.4 378h-346c-1.4 0-2.5-1.1-2.5-2.5v-44.3c0-1.4 1.1-2.5 2.5-2.5h346c1.4 0 2.5 1.1 2.5 2.5v44.3c0 1.4-1.1 2.5-2.5 2.5z"/><path id="XMLID_439_" class="st10" d="M330 343.5h101"/><path id="XMLID_440_" class="st11" d="M441 343.5h102"/><path id="XMLID_427_" class="st9" d="M400.1 476.4h-82.7c-1.4 0-2.5-1.1-2.5-2.5v-78.4c0-1.4 1.1-2.5 2.5-2.5h82.7c1.4 0 2.5 1.1 2.5 2.5v78.4c0 1.4-1.1 2.5-2.5 2.5z"/><path id="XMLID_554_" class="st9" d="M390.4 313.6h-73.7c-1.4 0-2.5-1.1-2.5-2.5v-3.6c0-1.4 1.1-2.5 2.5-2.5h73.7c1.4 0 2.5 1.1 2.5 2.5v3.6c0 1.3-1.1 2.5-2.5 2.5z"/><path id="XMLID_433_" class="st9" d="M663.4 475.4h-80.3c-1.4 0-2.5-1.1-2.5-2.5v-78.4c0-1.4 1.1-2.5 2.5-2.5h80.3c1.4 0 2.5 1.1 2.5 2.5v78.4c0 1.4-1.1 2.5-2.5 2.5z"/><path id="XMLID_432_" class="st9" d="M564.7 475.4h-147c-1.4 0-2.5-1.1-2.5-2.5v-78.4c0-1.4 1.1-2.5 2.5-2.5h147c1.4 0 2.5 1.1 2.5 2.5v78.4c0 1.4-1.1 2.5-2.5 2.5z"/><path id="XMLID_270_" class="st12" d="M508.8 435.6l8.4-7.7c1.8-1.6 1.2-4.4-.8-5.3l-7.6-3.2v-12c0-.9-.7-1.6-1.6-1.6h-4.7v-3.9c0-1.3-1.1-2.4-2.4-2.4H486c-1.3 0-2.4 1.1-2.4 2.4v3.9h-4.7c-.9 0-1.6.7-1.6 1.6v12l-7.5 3.2c-2.2.9-2.6 3.7-.9 5.2l8.4 7.7c0 3.6-5 11.2-14.6 11.2-.7 0-1.2.5-1.2 1.2v.8c0 .7.5 1.2 1.2 1.2 6.5 0 11.6-2.9 14.9-7.2 1 4.1 4.7 7.2 9.2 7.2h12.6c4.4 0 8.2-3.1 9.2-7.2 3.3 4.4 8.4 7.2 14.9 7.2.7 0 1.2-.5 1.2-1.2v-.7c0-.7-.5-1.2-1.2-1.2-9.3 0-14.7-7.4-14.7-11.2zm-22-33h12.6v3.2h-12.6v-3.2zm-6.4 6.3h25.2v9.1l-11.4-4.9c-.8-.3-1.7-.3-2.5 0l-11.4 4.9v-9.1zm25.3 25.3v6.3c0 3.5-2.8 6.3-6.3 6.3h-12.6c-3.5 0-6.3-2.8-6.3-6.3v-6.3l-9.5-8.7 22.1-9.5 22.1 9.5-9.5 8.7z"/><path id="XMLID_276_" class="st12" d="M385.9 435.1l-6.5-6.5c-.5-.5-1.2-.5-1.6 0l-6.5 6.5c-.7.7-.2 2 .8 2h4.3c-1.9 6.3-9 10.1-15.6 10.7v-23.9h5.8c.6 0 1.2-.5 1.2-1.2v-2.3c0-.6-.5-1.2-1.2-1.2h-5.8v-1.1c3.1-1 5.4-3.9 5.4-7.4 0-4.3-3.5-7.7-7.7-7.7s-7.7 3.5-7.7 7.7c0 3.5 2.3 6.4 5.4 7.4v1.1h-5.8c-.6 0-1.2.5-1.2 1.2v2.3c0 .6.5 1.2 1.2 1.2h5.8v23.9c-6.7-.6-13.7-4.4-15.6-10.7h4.3c1 0 1.6-1.3.8-2l-6.5-6.5c-.5-.5-1.2-.5-1.6 0l-6.5 6.5c-.7.7-.2 2 .8 2h3.9c2 9.6 12.4 15.5 22.7 15.5 11 0 20.8-6.3 22.7-15.5h3.9c1 0 1.5-1.3.8-2zm-27.5-27.5c1.7 0 3.1 1.4 3.1 3.1s-1.4 3.1-3.1 3.1-3.1-1.4-3.1-3.1 1.4-3.1 3.1-3.1z"/><path id="XMLID_277_" class="st12" d="M650 434.1l-6.5-6.5c-.5-.5-1.2-.5-1.6 0l-6.5 6.5c-.7.7-.2 2 .8 2h4.3c-1.9 6.3-9 10.1-15.6 10.7v-23.9h5.8c.6 0 1.2-.5 1.2-1.2v-2.3c0-.6-.5-1.2-1.2-1.2h-5.8v-1.1c3.1-1 5.4-3.9 5.4-7.4 0-4.3-3.5-7.7-7.7-7.7s-7.7 3.5-7.7 7.7c0 3.5 2.3 6.4 5.4 7.4v1.1h-5.8c-.6 0-1.2.5-1.2 1.2v2.3c0 .6.5 1.2 1.2 1.2h5.8v23.9c-6.7-.6-13.7-4.4-15.6-10.7h4.3c1 0 1.6-1.3.8-2l-6.5-6.5c-.5-.5-1.2-.5-1.6 0l-6.5 6.5c-.7.7-.2 2 .8 2h3.9c2 9.6 12.4 15.5 22.7 15.5 11 0 20.8-6.3 22.7-15.5h3.9c1 0 1.5-1.3.8-2zm-27.4-27.5c1.7 0 3.1 1.4 3.1 3.1s-1.4 3.1-3.1 3.1-3.1-1.4-3.1-3.1 1.4-3.1 3.1-3.1z"/><path id="XMLID_275_" class="st13" d="M340 365h-19"/><path id="XMLID_285_" class="st13" d="M425 365h-19"/><path id="XMLID_405_" class="st13" d="M468 365h-19"/><path id="XMLID_406_" class="st13" d="M537 365h-19"/><path id="XMLID_425_" class="st13" d="M578 365h-19"/><path id="XMLID_426_" class="st13" d="M663 365h-19"/><path id="XMLID_404_" class="st13" d="M658 464h-67"/><path id="XMLID_428_" class="st13" d="M559 464h-59"/><path id="XMLID_429_" class="st13" d="M485 464h-59"/><path id="XMLID_430_" class="st13" d="M388 465h-59"/><circle id="XMLID_431_" class="st10" cx="324.6" cy="343.7" r="5"/><circle id="XMLID_436_" cx="435.6" cy="343.7" r="5" fill="none" stroke="#0ddaac" stroke-width="3" stroke-miterlimit="10"/><circle id="XMLID_437_" class="st11" cx="547.6" cy="343.7" r="5"/><circle id="XMLID_438_" class="st11" cx="658.6" cy="343.7" r="5"/><path id="XMLID_441_" class="st11" d="M553 343.5h101"/><path id="XMLID_90_" class="st15" d="M316.9 234s44 9.2 53 61"/><path id="XMLID_93_" class="st15" d="M527.6 239s-9.1 22-12.4 48"/><path id="XMLID_94_" class="st0" d="M596.9 192s-47 46.5-49 94"/><path id="XMLID_95_" class="st15" d="M637.9 250c-6.6.3-21.4 1.9-36.8 12.7-15.8 11.1-23.3 25.8-26.3 32.3"/><path id="XMLID_92_" class="st15" d="M448.9 170c4.9 11.5 12.4 32.3 15.3 60.9 2.9 28.1.1 51.1-2.2 64.1"/><path id="XMLID_100_" class="st9" d="M481.4 314.1h-73.7c-1.4 0-2.5-1.1-2.5-2.5V308c0-1.4 1.1-2.5 2.5-2.5h73.7c1.4 0 2.5 1.1 2.5 2.5v3.6c0 1.3-1.1 2.5-2.5 2.5z"/><path id="XMLID_106_" class="st9" d="M571.9 314.1h-73.7c-1.4 0-2.5-1.1-2.5-2.5V308c0-1.4 1.1-2.5 2.5-2.5h73.7c1.4 0 2.5 1.1 2.5 2.5v3.6c0 1.3-1.1 2.5-2.5 2.5z"/><path id="XMLID_128_" class="st9" d="M662.9 314.1h-73.7c-1.4 0-2.5-1.1-2.5-2.5V308c0-1.4 1.1-2.5 2.5-2.5h73.7c1.4 0 2.5 1.1 2.5 2.5v3.6c0 1.3-1.1 2.5-2.5 2.5z"/></svg>