<svg id="Layer_1" xmlns="http://www.w3.org/2000/svg" viewBox="300 150 350 250"><style>.st0{opacity:.5}.st2{fill:#f55f44}.st3{fill:#4d8af0}.st4{fill:#3ad29f}.st5{fill:#fdd835}.st6{opacity:.1}.st8{fill:#0b85d3;stroke:#0b85d3;stroke-miterlimit:10}.st10{fill:#fff}.st13{fill:#f5f5f5}.st14{fill:#e0e0e0}.st15{opacity:.1;enable-background:new}.st22{fill:#706a6a}</style><g id="XMLID_16_"><g id="XMLID_346_" class="st0"><linearGradient id="XMLID_2_" gradientUnits="userSpaceOnUse" x1="459.807" y1="237.327" x2="459.807" y2="288.37" gradientTransform="matrix(1 0 0 -1 0 562)"><stop offset="0" stop-color="gray" stop-opacity=".25"/><stop offset=".54" stop-color="gray" stop-opacity=".12"/><stop offset="1" stop-color="gray" stop-opacity=".1"/></linearGradient><path id="XMLID_347_" fill="url(#XMLID_2_)" d="M536.3 273.8v-.2h-5.5v.2h-5.2v-.2H520v.2h-5.2v-.2h-5.5v.2h-15v-.2h-5.5v.2h-5.2v-.2H478v.2h-5.2v-.2h-5.5v.2h-15v-.2h-5.5v.2h-5.2v-.2H436v.2h-5.2v-.2h-5.5v.2h-7.5v25.4h-7.5v-.1h-5.5v.1h-5.2v-.1h-5.5v.1h-5.3v-.1h-5.5v.1h-7.5v25.5h83.7v-25.5h.3v25.5h84v-50.9z"/></g><path id="XMLID_345_" class="st2" d="M418.5 274.2h41.3v25h-41.3z"/><path id="XMLID_344_" class="st3" d="M459.8 274.2h41.3v25h-41.3z"/><path id="XMLID_343_" class="st4" d="M501.1 274.2h41.3v25h-41.3z"/><path id="XMLID_342_" class="st3" d="M418.2 299.2h41.3v25h-41.3z"/><path id="XMLID_341_" class="st2" d="M377.2 299.2h41.3v25h-41.3z"/><path id="XMLID_340_" class="st4" d="M459.8 299.2h41.3v25h-41.3z"/><path id="XMLID_339_" class="st5" d="M501.1 299.2h41.3v25h-41.3z"/><g id="XMLID_335_" class="st6"><path id="XMLID_338_" d="M425.9 274h5.4v25h-5.4z"/><path id="XMLID_337_" d="M436.4 274h5.4v25h-5.4z"/><path id="XMLID_336_" d="M447 274h5.4v25H447z"/></g><g id="XMLID_326_" class="st6"><path id="XMLID_334_" d="M467.2 274h5.4v25h-5.4z"/><path id="XMLID_333_" d="M477.8 274h5.4v25h-5.4z"/><path id="XMLID_327_" d="M488.3 274h5.4v25h-5.4z"/></g><g id="XMLID_322_" class="st6"><path id="XMLID_325_" d="M508.5 274h5.4v25h-5.4z"/><path id="XMLID_324_" d="M519.1 274h5.4v25h-5.4z"/><path id="XMLID_323_" d="M529.6 274h5.4v25h-5.4z"/></g><g id="XMLID_318_" class="st6"><path id="XMLID_321_" d="M425.9 299.1h5.4v25h-5.4z"/><path id="XMLID_320_" d="M436.4 299.1h5.4v25h-5.4z"/><path id="XMLID_319_" d="M447 299.1h5.4v25H447z"/></g><g id="XMLID_314_" class="st6"><path id="XMLID_317_" d="M384.6 299.1h5.4v25h-5.4z"/><path id="XMLID_316_" d="M395.1 299.1h5.4v25h-5.4z"/><path id="XMLID_315_" d="M405.7 299.1h5.4v25h-5.4z"/></g><g id="XMLID_310_" class="st6"><path id="XMLID_313_" d="M467.2 299.1h5.4v25h-5.4z"/><path id="XMLID_312_" d="M477.8 299.1h5.4v25h-5.4z"/><path id="XMLID_311_" d="M488.3 299.1h5.4v25h-5.4z"/></g><g id="XMLID_294_" class="st6"><path id="XMLID_309_" d="M508.5 299.1h5.4v25h-5.4z"/><path id="XMLID_308_" d="M519.1 299.1h5.4v25h-5.4z"/><path id="XMLID_304_" d="M529.6 299.1h5.4v25h-5.4z"/></g><g id="XMLID_292_" class="st0"><linearGradient id="XMLID_3_" gradientUnits="userSpaceOnUse" x1="614.597" y1="60.347" x2="614.597" y2="126.391" gradientTransform="matrix(1 0 0 -1 -133.81 435.11)"><stop offset="0" stop-color="gray" stop-opacity=".25"/><stop offset=".54" stop-color="gray" stop-opacity=".12"/><stop offset="1" stop-color="gray" stop-opacity=".1"/></linearGradient><path id="XMLID_293_" d="M419.8 308.7h-87.1s-7.7 34.5 31.8 58.2v7.8h250.7v-6.5s22.2-5.9 11.1-46.9l-183.1 1-23.4-13.6z" fill="url(#XMLID_3_)"/></g><path id="XMLID_290_" class="st8" d="M421.2 311.6h-85.1s-7.5 32 31.1 54v7.2h244.9v-6.1s21.7-5.4 10.9-43.4l-178.9.9-22.9-12.6z"/><g id="XMLID_288_" class="st0"><linearGradient id="XMLID_4_" gradientUnits="userSpaceOnUse" x1="585.88" y1="219.395" x2="585.88" y2="227.136" gradientTransform="matrix(1 0 0 -1 0 562)"><stop offset="0" stop-color="gray" stop-opacity=".25"/><stop offset=".54" stop-color="gray" stop-opacity=".12"/><stop offset="1" stop-color="gray" stop-opacity=".1"/></linearGradient><path id="XMLID_289_" d="M578 334.9h15.8c2 0 3.7 1.7 3.7 3.7v.3c0 2-1.7 3.7-3.7 3.7H578c-2 0-3.7-1.7-3.7-3.7v-.3c0-2.1 1.6-3.7 3.7-3.7z" fill="url(#XMLID_4_)"/></g><path id="XMLID_287_" class="st10" d="M578.5 335.1h14.8c1.9 0 3.5 1.5 3.5 3.5v.3c0 1.9-1.5 3.5-3.5 3.5h-14.8c-1.9 0-3.5-1.5-3.5-3.5v-.3c0-1.9 1.6-3.5 3.5-3.5z"/><g id="XMLID_255_" class="st0"><linearGradient id="XMLID_5_" gradientUnits="userSpaceOnUse" x1="604.277" y1="219.194" x2="604.277" y2="227.336" gradientTransform="matrix(1 0 0 -1 0 562)"><stop offset="0" stop-color="gray" stop-opacity=".25"/><stop offset=".54" stop-color="gray" stop-opacity=".12"/><stop offset="1" stop-color="gray" stop-opacity=".1"/></linearGradient><path id="XMLID_280_" d="M604.1 334.7h.4c2.1 0 3.9 1.7 3.9 3.9v.4c0 2.1-1.7 3.9-3.9 3.9h-.4c-2.1 0-3.9-1.7-3.9-3.9v-.4c0-2.2 1.7-3.9 3.9-3.9z" fill="url(#XMLID_5_)"/></g><path id="XMLID_254_" class="st10" d="M604.1 335.1h.3c1.9 0 3.5 1.5 3.5 3.5v.3c0 1.9-1.5 3.5-3.5 3.5h-.3c-1.9 0-3.5-1.5-3.5-3.5v-.3c.1-1.9 1.6-3.5 3.5-3.5z"/><g id="XMLID_252_" class="st0"><linearGradient id="XMLID_6_" gradientUnits="userSpaceOnUse" x1="588.896" y1="237.289" x2="588.896" y2="347.075" gradientTransform="matrix(1 0 0 -1 0 562)"><stop offset="0" stop-color="gray" stop-opacity=".25"/><stop offset=".54" stop-color="gray" stop-opacity=".12"/><stop offset="1" stop-color="gray" stop-opacity=".1"/></linearGradient><path id="XMLID_253_" fill="url(#XMLID_6_)" d="M620.1 291.9v-7.4h-19.5v-37.4h-27.5v-22.9h4.4v-4.9h-4.4v-4.4H568v4.4h-4.2v4.9h4.2v22.9h-8.4v44.8h-8v5.6h8v27.2h60.5v-27.2h6v-5.6z"/></g><path id="XMLID_251_" class="st13" d="M560.8 284.1h57v39.2h-57z"/><path id="XMLID_250_" class="st13" d="M560.8 247.7h38.6v36.5h-38.6z"/><path id="XMLID_249_" class="st8" d="M578.9 263.6h13.3v20.5h-13.3z"/><path id="XMLID_248_" class="st10" d="M560.8 260.9h7.8v10.9h-7.8z"/><path id="XMLID_247_" class="st14" d="M568.7 216.3h4.8v31.4h-4.8z"/><path id="XMLID_246_" class="st14" d="M564.8 220.5h13v4.8h-13z"/><path id="XMLID_244_" class="st14" d="M553.3 291.4h70.3v5.4h-70.3z"/><circle id="XMLID_226_" class="st10" cx="573.5" cy="306.2" r="2.7"/><circle id="XMLID_216_" class="st10" cx="583.2" cy="306.2" r="2.7"/><circle id="XMLID_215_" class="st10" cx="592.8" cy="306.2" r="2.7"/><circle id="XMLID_214_" class="st10" cx="602.5" cy="306.2" r="2.7"/><path id="XMLID_209_" class="st15" d="M367.1 365.7H612v7.2H367.1z"/><path id="XMLID_208_" class="st15" d="M336.1 313h85.1l22.9 12.7 178.9-.9c2.1 7.2 2.9 13.2 3 18.3.1-5.3-.8-11.9-3-19.8l-178.9.9-22.9-12.7h-85c-.5 2.4-.7 4.9-.6 7.4 0-2 .2-4 .5-5.9z"/><path id="XMLID_207_" opacity=".05" d="M560.8 296.8h57v1.1h-57z"/><g id="XMLID_204_" class="st0"><linearGradient id="XMLID_7_" gradientUnits="userSpaceOnUse" x1="350.776" y1="235.78" x2="350.776" y2="244.826" gradientTransform="matrix(1 0 0 -1 0 562)"><stop offset="0" stop-color="gray" stop-opacity=".25"/><stop offset=".54" stop-color="gray" stop-opacity=".12"/><stop offset="1" stop-color="gray" stop-opacity=".1"/></linearGradient><circle id="XMLID_205_" cx="350.8" cy="321.7" r="4.5" fill="url(#XMLID_7_)"/></g><g id="XMLID_202_" class="st0"><linearGradient id="XMLID_8_" gradientUnits="userSpaceOnUse" x1="370.682" y1="235.78" x2="370.682" y2="244.826" gradientTransform="matrix(1 0 0 -1 0 562)"><stop offset="0" stop-color="gray" stop-opacity=".25"/><stop offset=".54" stop-color="gray" stop-opacity=".12"/><stop offset="1" stop-color="gray" stop-opacity=".1"/></linearGradient><circle id="XMLID_203_" cx="370.7" cy="321.7" r="4.5" fill="url(#XMLID_8_)"/></g><g id="XMLID_200_" class="st0"><linearGradient id="XMLID_9_" gradientUnits="userSpaceOnUse" x1="390.588" y1="235.78" x2="390.588" y2="244.826" gradientTransform="matrix(1 0 0 -1 0 562)"><stop offset="0" stop-color="gray" stop-opacity=".25"/><stop offset=".54" stop-color="gray" stop-opacity=".12"/><stop offset="1" stop-color="gray" stop-opacity=".1"/></linearGradient><circle id="XMLID_201_" cx="390.6" cy="321.7" r="4.5" fill="url(#XMLID_9_)"/></g><g id="XMLID_198_" class="st0"><linearGradient id="XMLID_10_" gradientUnits="userSpaceOnUse" x1="410.494" y1="235.78" x2="410.494" y2="244.826" gradientTransform="matrix(1 0 0 -1 0 562)"><stop offset="0" stop-color="gray" stop-opacity=".25"/><stop offset=".54" stop-color="gray" stop-opacity=".12"/><stop offset="1" stop-color="gray" stop-opacity=".1"/></linearGradient><circle id="XMLID_199_" cx="410.5" cy="321.7" r="4.5" fill="url(#XMLID_10_)"/></g><circle id="XMLID_87_" class="st10" cx="350.8" cy="321.7" r="3.6"/><circle id="XMLID_81_" class="st10" cx="370.7" cy="321.7" r="3.6"/><circle id="XMLID_78_" class="st10" cx="390.6" cy="321.7" r="3.6"/><circle id="XMLID_73_" class="st10" cx="410.5" cy="321.7" r="3.6"/><g id="XMLID_43_" class="st0"><linearGradient id="XMLID_11_" gradientUnits="userSpaceOnUse" x1="540.564" y1="206.254" x2="540.564" y2="224.148" gradientTransform="matrix(1 0 0 -1 -133.81 435.11)"><stop offset="0" stop-color="gray" stop-opacity=".25"/><stop offset=".54" stop-color="gray" stop-opacity=".12"/><stop offset="1" stop-color="gray" stop-opacity=".1"/></linearGradient><path id="XMLID_51_" d="M406.2 228.9l-2.6-.5c.1-.6.2-1.3.3-1.9.4-5.6-3.4-11.5-8.9-13l.7-2.6c5 1.4 8.8 5.5 10.2 10.3 2.6-4.4 6.9-7.6 12-8.7l.5 2.6c-5.7 1.1-10.6 6-11.9 11.7 0 .8-.1 1.4-.3 2.1z" fill="url(#XMLID_11_)"/></g><path id="XMLID_42_" class="st22" d="M406.3 227.6l-2.2-.4c.1-.6.1-1.1.3-1.6.4-4.8-2.9-9.8-7.6-11.1l.6-2.2c4.2 1.2 7.5 4.7 8.8 8.8 2.2-3.8 5.9-6.5 10.2-7.4l.5 2.2c-4.9 1-9 5.1-10.2 10-.2.6-.3 1.1-.4 1.7z"/><g id="XMLID_40_" class="st0"><linearGradient id="XMLID_12_" gradientUnits="userSpaceOnUse" x1="596.155" y1="230.229" x2="596.155" y2="241.774" gradientTransform="matrix(1 0 0 -1 -133.81 435.11)"><stop offset="0" stop-color="gray" stop-opacity=".25"/><stop offset=".54" stop-color="gray" stop-opacity=".12"/><stop offset="1" stop-color="gray" stop-opacity=".1"/></linearGradient><path id="XMLID_41_" d="M462 204.9l-1.7-.3c0-.4.1-.8.2-1.2.3-3.6-2.2-7.4-5.7-8.4l.5-1.7c3.2.9 5.7 3.6 6.6 6.7 1.7-2.9 4.5-4.9 7.7-5.6l.3 1.7c-3.7.8-6.8 3.9-7.7 7.5 0 .4-.1.9-.2 1.3z" fill="url(#XMLID_12_)"/></g><g id="XMLID_33_" class="st0"><linearGradient id="XMLID_13_" gradientUnits="userSpaceOnUse" x1="698.635" y1="237.792" x2="698.635" y2="249.337" gradientTransform="matrix(1 0 0 -1 -133.81 435.11)"><stop offset="0" stop-color="gray" stop-opacity=".25"/><stop offset=".54" stop-color="gray" stop-opacity=".12"/><stop offset="1" stop-color="gray" stop-opacity=".1"/></linearGradient><path id="XMLID_39_" d="M564.5 197.3l-1.7-.3c0-.4.1-.8.2-1.2.3-3.6-2.2-7.4-5.7-8.4l.5-1.7c3.2.9 5.7 3.6 6.6 6.7 1.7-2.9 4.5-4.9 7.7-5.6l.3 1.7c-3.7.8-6.8 3.9-7.7 7.5 0 .5-.1.9-.2 1.3z" fill="url(#XMLID_13_)"/></g><path id="XMLID_21_" class="st22" d="M462.1 202.9l-1.1-.2c0-.3.1-.5.1-.8.2-2.3-1.4-4.8-3.7-5.4l.3-1.1c2.1.6 3.7 2.3 4.3 4.3 1.1-1.9 2.9-3.2 5-3.6l.2 1.1c-2.4.6-4.4 2.5-5 4.9 0 .2 0 .5-.1.8z"/><path id="XMLID_20_" class="st22" d="M564.6 195.3l-1.1-.2c0-.3.1-.5.1-.8.2-2.3-1.4-4.8-3.7-5.4l.3-1.1c2.1.6 3.7 2.3 4.3 4.3 1.1-1.9 2.9-3.2 5-3.6l.2 1.1c-2.4.6-4.4 2.5-5 4.9 0 .3 0 .5-.1.8z"/><g id="XMLID_18_" class="st0"><linearGradient id="XMLID_14_" gradientUnits="userSpaceOnUse" x1="359.103" y1="321.89" x2="359.103" y2="372.563" gradientTransform="matrix(1 0 0 -1 0 562)"><stop offset="0" stop-color="gray" stop-opacity=".25"/><stop offset=".54" stop-color="gray" stop-opacity=".12"/><stop offset="1" stop-color="gray" stop-opacity=".1"/></linearGradient><circle id="XMLID_19_" cx="359.1" cy="214.8" r="25.3" fill="url(#XMLID_14_)"/></g><circle id="XMLID_17_" class="st5" cx="359.1" cy="214.8" r="23.4"/></g></svg>