<svg xmlns="http://www.w3.org/2000/svg" viewBox="0 0 250 250"><defs><style>.cls-1{fill:#0b6ede;}.cls-2{fill:#fff;}</style></defs><title>4.1</title><g id="レイヤー_2" data-name="レイヤー 2"><g id="レイヤー_1-2" data-name="レイヤー 1"><circle class="cls-1" cx="125" cy="125" r="125"/><path class="cls-2" d="M170.2,70.13a12.65,12.65,0,0,0-11.12,18.68l-20.73,20.73a16.76,16.76,0,0,0-20.66,0L101.52,93.36a8.32,8.32,0,0,0,1.2-4.26,8.44,8.44,0,1,0-8.44,8.44,8.32,8.32,0,0,0,4.26-1.2l16.17,16.17a16.76,16.76,0,0,0,0,20.66L88,159.88a12.52,12.52,0,1,0,2.64,3.33l27.05-27.05a16.77,16.77,0,0,0,8.22,3.41V161a12.65,12.65,0,1,0,4.22,0V139.57a16.77,16.77,0,0,0,8.22-3.41l16.17,16.17a8.32,8.32,0,0,0-1.2,4.26,8.44,8.44,0,1,0,8.44-8.44,8.32,8.32,0,0,0-4.26,1.2l-16.17-16.17a16.76,16.76,0,0,0,0-20.66l20.38-20.38a12.64,12.64,0,1,0,8.48-22Zm-80.14,19a4.22,4.22,0,1,1,4.22,4.22A4.22,4.22,0,0,1,90.06,89.11ZM79.52,177.68A8.44,8.44,0,1,1,88,169.24,8.44,8.44,0,0,1,79.52,177.68Zm56.94-4.22A8.44,8.44,0,1,1,128,165,8.44,8.44,0,0,1,136.45,173.46Zm-8.44-38a12.65,12.65,0,1,1,12.65-12.65A12.67,12.67,0,0,1,128,135.5Zm38,21.09a4.22,4.22,0,1,1-4.22-4.22A4.22,4.22,0,0,1,166,156.59Zm4.22-65.37a8.44,8.44,0,1,1,8.44-8.44A8.44,8.44,0,0,1,170.2,91.22Z"/></g></g></svg>