<svg xmlns="http://www.w3.org/2000/svg" viewBox="0 0 250 250"><defs><style>.cls-1{fill:#0b6ede;}.cls-2{fill:#fff;}</style></defs><title>4.2</title><g id="レイヤー_2" data-name="レイヤー 2"><g id="レイヤー_1-2" data-name="レイヤー 1"><circle class="cls-1" cx="125" cy="125" r="125"/><path class="cls-2" d="M170.55,84.57h-1.83V75.42a5.5,5.5,0,0,0-5.49-5.49h-3.66a5.5,5.5,0,0,0-5.49,5.49v9.15H95.53V75.42A5.5,5.5,0,0,0,90,69.93H86.38a5.5,5.5,0,0,0-5.49,5.49v9.15H79.07a9.16,9.16,0,0,0-9.15,9.15v76.85a9.16,9.16,0,0,0,9.15,9.15h91.49a9.16,9.16,0,0,0,9.15-9.15V93.71A9.16,9.16,0,0,0,170.55,84.57Zm-12.81,1.83v-11a1.83,1.83,0,0,1,1.83-1.83h3.66a1.83,1.83,0,0,1,1.83,1.83v18.3a1.83,1.83,0,0,1-1.83,1.83h-3.66a1.83,1.83,0,0,1-1.83-1.83Zm-73.19,0v-11a1.83,1.83,0,0,1,1.83-1.83H90a1.83,1.83,0,0,1,1.83,1.83v18.3A1.83,1.83,0,0,1,90,95.54H86.38a1.83,1.83,0,0,1-1.83-1.83ZM176,170.56a5.5,5.5,0,0,1-5.49,5.49H79.07a5.5,5.5,0,0,1-5.49-5.49V117.5H176Zm0-56.72H73.58V93.71a5.5,5.5,0,0,1,5.49-5.49H80.9v5.49a5.5,5.5,0,0,0,5.49,5.49H90a5.5,5.5,0,0,0,5.49-5.49V88.22h58.55v5.49a5.5,5.5,0,0,0,5.49,5.49h3.66a5.5,5.5,0,0,0,5.49-5.49V88.22h1.83A5.5,5.5,0,0,1,176,93.71Z"/><path class="cls-2" d="M144.94,93.71H104.68a1.83,1.83,0,0,0-1.83,1.83v11a1.83,1.83,0,0,0,1.83,1.83h40.25a1.83,1.83,0,0,0,1.83-1.83v-11A1.83,1.83,0,0,0,144.94,93.71Zm-1.83,11h-36.6V97.37h36.6Z"/><path class="cls-2" d="M93.7,123h-11a1.83,1.83,0,0,0-1.83,1.83V134a1.83,1.83,0,0,0,1.83,1.83h11A1.83,1.83,0,0,0,95.53,134v-9.15A1.83,1.83,0,0,0,93.7,123Zm-1.83,9.15H84.56v-5.49h7.32Z"/><path class="cls-2" d="M117.49,123h-11a1.83,1.83,0,0,0-1.83,1.83V134a1.83,1.83,0,0,0,1.83,1.83h11a1.83,1.83,0,0,0,1.83-1.83v-9.15A1.83,1.83,0,0,0,117.49,123Zm-1.83,9.15h-7.32v-5.49h7.32Z"/><path class="cls-2" d="M143.11,123h-11a1.83,1.83,0,0,0-1.83,1.83V134a1.83,1.83,0,0,0,1.83,1.83h11a1.83,1.83,0,0,0,1.83-1.83v-9.15A1.83,1.83,0,0,0,143.11,123Zm-1.83,9.15H134v-5.49h7.32Z"/><path class="cls-2" d="M166.89,123h-11a1.83,1.83,0,0,0-1.83,1.83V134a1.83,1.83,0,0,0,1.83,1.83h11a1.83,1.83,0,0,0,1.83-1.83v-9.15A1.83,1.83,0,0,0,166.89,123Zm-1.83,9.15h-7.32v-5.49h7.32Z"/><path class="cls-2" d="M93.7,141.29h-11a1.83,1.83,0,0,0-1.83,1.83v9.15a1.83,1.83,0,0,0,1.83,1.83h11a1.83,1.83,0,0,0,1.83-1.83v-9.15A1.83,1.83,0,0,0,93.7,141.29Zm-1.83,9.15H84.56v-5.49h7.32Z"/><path class="cls-2" d="M117.49,141.29h-11a1.83,1.83,0,0,0-1.83,1.83v9.15a1.83,1.83,0,0,0,1.83,1.83h11a1.83,1.83,0,0,0,1.83-1.83v-9.15A1.83,1.83,0,0,0,117.49,141.29Zm-1.83,9.15h-7.32v-5.49h7.32Z"/><path class="cls-2" d="M143.11,141.29h-11a1.83,1.83,0,0,0-1.83,1.83v9.15a1.83,1.83,0,0,0,1.83,1.83h11a1.83,1.83,0,0,0,1.83-1.83v-9.15A1.83,1.83,0,0,0,143.11,141.29Zm-1.83,9.15H134v-5.49h7.32Z"/><path class="cls-2" d="M166.89,141.29h-11a1.83,1.83,0,0,0-1.83,1.83v9.15a1.83,1.83,0,0,0,1.83,1.83h11a1.83,1.83,0,0,0,1.83-1.83v-9.15A1.83,1.83,0,0,0,166.89,141.29Zm-1.83,9.15h-7.32v-5.49h7.32Z"/><path class="cls-2" d="M93.7,159.59h-11a1.83,1.83,0,0,0-1.83,1.83v9.15a1.83,1.83,0,0,0,1.83,1.83h11a1.83,1.83,0,0,0,1.83-1.83v-9.15A1.83,1.83,0,0,0,93.7,159.59Zm-1.83,9.15H84.56v-5.49h7.32Z"/><path class="cls-2" d="M117.49,159.59h-11a1.83,1.83,0,0,0-1.83,1.83v9.15a1.83,1.83,0,0,0,1.83,1.83h11a1.83,1.83,0,0,0,1.83-1.83v-9.15A1.83,1.83,0,0,0,117.49,159.59Zm-1.83,9.15h-7.32v-5.49h7.32Z"/><path class="cls-2" d="M143.53,158.41l-7.87,9.44-4.07-4.07L129,166.37l5.49,5.49a1.82,1.82,0,0,0,1.29.54h.08a1.84,1.84,0,0,0,1.32-.66l9.15-11Z"/><path class="cls-2" d="M165.49,158.41l-7.87,9.44-4.07-4.07L151,166.37l5.49,5.49a1.82,1.82,0,0,0,1.29.54h.08a1.84,1.84,0,0,0,1.32-.66l9.15-11Z"/></g></g></svg>