<svg id="Layer_1" xmlns="http://www.w3.org/2000/svg" viewBox="200 50 600 500"><style>.st0{fill:none;stroke:#69f0ae;stroke-width:9;stroke-miterlimit:10}.st3{fill:#f6b9ad}.st6{fill:#fff}.st7{fill:#5fa6ce}</style><path id="XMLID_834_" class="st0" d="M310.9 339.5s-.3-1-.9-2.9"/><path id="XMLID_833_" d="M308.4 330.7C296 283.2 257.5 64 643.5 200.8" fill="none" stroke="#69f0ae" stroke-width="9" stroke-miterlimit="10" stroke-dasharray="12.04,12.04"/><path id="XMLID_832_" class="st0" d="M646.4 201.8l2.9 1"/><linearGradient id="XMLID_2_" gradientUnits="userSpaceOnUse" x1="696.023" y1="13.028" x2="696.023" y2="159.968" gradientTransform="matrix(1 0 0 -1 -198.33 489.56)"><stop offset="0" stop-color="gray" stop-opacity=".25"/><stop offset=".54" stop-color="gray" stop-opacity=".12"/><stop offset="1" stop-color="gray" stop-opacity=".1"/></linearGradient><path id="XMLID_830_" d="M602 370.9c0-22.8-18.5-41.3-41.3-41.3-19.8 0-36.9 14.1-40.6 33.6l-126.8-3.4 1.4 21.8s-18.1 41.7 77 52.8v42.2h109.9v-70.1c12.6-7.5 20.4-21 20.4-35.6z" fill="url(#XMLID_2_)"/><path id="XMLID_829_" class="st3" d="M399.1 382.4s-17.3 40 73.7 50.6v40.4H578v-107l-180.3-4.9 1.4 20.9z"/><linearGradient id="XMLID_3_" gradientUnits="userSpaceOnUse" x1="605.43" y1="264.85" x2="605.43" y2="340.717" gradientTransform="matrix(1 0 0 -1 -198.33 489.56)"><stop offset="0" stop-color="gray" stop-opacity=".25"/><stop offset=".54" stop-color="gray" stop-opacity=".12"/><stop offset="1" stop-color="gray" stop-opacity=".1"/></linearGradient><path id="XMLID_828_" d="M451.7 215.7c-5.7 9-17.6 11.7-26.7 6.1l-56.5-37.2c-9-5.7-11.7-17.6-6.1-26.7 5.7-9 17.6-11.7 26.7-6.1l56.5 37.2c9.1 5.7 11.8 17.6 6.1 26.7z" fill="url(#XMLID_3_)"/><path id="XMLID_824_" class="st3" d="M448.6 213.7c-5.3 8.4-16.4 10.9-24.8 5.6l-52.5-34.6c-8.4-5.3-10.9-16.4-5.6-24.8 5.3-8.4 16.4-10.9 24.8-5.6l52.5 34.6c8.3 5.3 10.8 16.3 5.6 24.8z"/><circle id="XMLID_823_" class="st3" cx="558.1" cy="372.2" r="39.5"/><linearGradient id="XMLID_4_" gradientUnits="userSpaceOnUse" x1="673.604" y1="82.266" x2="673.604" y2="377.955" gradientTransform="matrix(1 0 0 -1 -198.33 489.56)"><stop offset="0" stop-color="gray" stop-opacity=".25"/><stop offset=".54" stop-color="gray" stop-opacity=".12"/><stop offset="1" stop-color="gray" stop-opacity=".1"/></linearGradient><path id="XMLID_819_" d="M399.6 111.6H551c3.4 0 6.2 2.8 6.2 6.2V401c0 3.4-2.8 6.2-6.2 6.2H399.6c-3.4 0-6.2-2.8-6.2-6.2V117.8c0-3.4 2.8-6.2 6.2-6.2z" fill="url(#XMLID_4_)"/><path id="XMLID_810_" class="st6" d="M402.5 115.6H548c3.8 0 6.9 3.1 6.9 6.9v273.8c0 3.8-3.1 6.9-6.9 6.9H402.5c-3.8 0-6.9-3.1-6.9-6.9V122.5c0-3.8 3.1-6.9 6.9-6.9z"/><path id="XMLID_809_" class="st7" d="M515.3 122.8c-1 6.3-6.4 11-12.7 11h-55c-6.4 0-11.8-4.7-12.7-11h-29.2c-3.3 0-6.1 2.7-6.1 6V390c0 3.3 2.7 6.1 6 6.1h139.3c3.3 0 6.1-2.7 6.1-6V128.9c0-3.3-2.7-6.1-6-6.1h-29.7z"/><linearGradient id="XMLID_5_" gradientUnits="userSpaceOnUse" x1="765.246" y1="109.833" x2="765.246" y2="250.701" gradientTransform="matrix(1 0 0 -1 -198.33 489.56)"><stop offset="0" stop-color="gray" stop-opacity=".25"/><stop offset=".54" stop-color="gray" stop-opacity=".12"/><stop offset="1" stop-color="gray" stop-opacity=".1"/></linearGradient><path id="XMLID_798_" d="M583.6 379.2c-11.5 2.7-19.3-4.8-22-16.3l-26.3-97.8c-2.6-11.5 4.5-23 16-25.7 11.5-2.6 23 4.5 25.7 16l21.5 100.3c2.6 11.6-3.4 20.8-14.9 23.5z" fill="url(#XMLID_5_)"/><path id="XMLID_797_" class="st3" d="M552.4 244.4c9.7-2.2 19.3 3.8 21.6 13.5l24.2 104.9c2.2 9.7-3.8 19.3-13.5 21.6-9.7 2.2-19.3-3.8-21.6-13.5l-24.1-105c-2.3-9.6 3.8-19.3 13.4-21.5z"/><linearGradient id="XMLID_6_" gradientUnits="userSpaceOnUse" x1="720.556" y1="-5.731" x2="720.556" y2="29.328" gradientTransform="matrix(1 0 0 -1 -198.33 489.56)"><stop offset="0" stop-color="gray" stop-opacity=".25"/><stop offset=".54" stop-color="gray" stop-opacity=".12"/><stop offset="1" stop-color="gray" stop-opacity=".1"/></linearGradient><path id="XMLID_796_" fill="url(#XMLID_6_)" d="M447 460.2h150.4v35.1H447z"/><path id="XMLID_795_" fill="#ff5252" d="M451.1 464.3h142.3v27.4H451.1z"/><path id="XMLID_788_" class="st7" d="M473.4 183.9l-28.5 21c-1.4 1-2.2 2.6-2.1 4.3l64 .2c0-2.4-.5-3-1.6-3.9l-29-21.6c-.7-.7-1.9-.7-2.8 0z"/><linearGradient id="XMLID_7_" gradientUnits="userSpaceOnUse" x1="696.433" y1="288.065" x2="696.433" y2="326.083" gradientTransform="matrix(1 .00227 .00227 -1 -198.603 488.248)"><stop offset="0" stop-opacity=".12"/><stop offset=".55" stop-opacity=".09"/><stop offset="1" stop-opacity=".02"/></linearGradient><path id="XMLID_786_" fill="url(#XMLID_7_)" d="M519.9 169.8l-7.7-6-18.7 23.7-10.1-7.8-6.3 8 14.7 11.1 3.6 3z"/><path id="XMLID_785_" class="st6" d="M518.7 165.6l-7-5.4-18.6 24.2-10.3-7.9-5.4 7 13.8 10.6 3.6 2.7z"/><linearGradient id="XMLID_8_" gradientUnits="userSpaceOnUse" x1="597.662" y1="211.594" x2="597.662" y2="281.216" gradientTransform="matrix(1 0 0 -1 -198.33 489.56)"><stop offset="0" stop-color="gray" stop-opacity=".25"/><stop offset=".54" stop-color="gray" stop-opacity=".12"/><stop offset="1" stop-color="gray" stop-opacity=".1"/></linearGradient><path id="XMLID_784_" d="M439.6 269c-5.7 8.9-17.5 11.6-26.5 6l-48-31.3c-8.9-5.7-11.6-17.5-6-26.5 5.7-8.9 17.5-11.6 26.5-6l48 31.3c8.9 5.7 11.6 17.5 6 26.5z" fill="url(#XMLID_8_)"/><path id="XMLID_783_" class="st3" d="M437 267.4c-5.3 8.4-16.4 10.9-24.8 5.6l-45-29.3c-8.4-5.3-10.9-16.4-5.6-24.8 5.3-8.4 16.4-10.9 24.8-5.6l45 29.3c8.4 5.3 10.9 16.4 5.6 24.8z"/><linearGradient id="XMLID_9_" gradientUnits="userSpaceOnUse" x1="592.998" y1="160" x2="592.998" y2="222.702" gradientTransform="matrix(1 0 0 -1 -198.33 489.56)"><stop offset="0" stop-color="gray" stop-opacity=".25"/><stop offset=".54" stop-color="gray" stop-opacity=".12"/><stop offset="1" stop-color="gray" stop-opacity=".1"/></linearGradient><path id="XMLID_781_" d="M429.8 320.6c-5.6 8.9-17.4 11.6-26.4 6l-37.9-24.5c-8.9-5.6-11.6-17.4-6-26.4 5.6-8.9 17.4-11.6 26.4-6l37.9 24.5c8.9 5.7 11.6 17.5 6 26.4z" fill="url(#XMLID_9_)"/><linearGradient id="XMLID_10_" gradientUnits="userSpaceOnUse" x1="590.55" y1="108.021" x2="590.55" y2="163.663" gradientTransform="matrix(1 0 0 -1 -198.33 489.56)"><stop offset="0" stop-color="gray" stop-opacity=".25"/><stop offset=".54" stop-color="gray" stop-opacity=".12"/><stop offset="1" stop-color="gray" stop-opacity=".1"/></linearGradient><path id="XMLID_780_" d="M420.3 372.5c-5.7 9-17.6 11.7-26.6 6l-23.5-17.1c-9-5.7-11.7-17.6-6-26.6 5.7-9 17.6-11.7 26.6-6l23.5 17.1c8.9 5.8 11.6 17.6 6 26.6z" fill="url(#XMLID_10_)"/><path id="XMLID_779_" class="st3" d="M418.4 371.3c-5.3 8.4-16.4 10.9-24.8 5.6l-21.9-16c-8.4-5.3-10.9-16.4-5.6-24.8 5.3-8.4 16.4-10.9 24.8-5.6l21.9 16c8.3 5.3 10.8 16.4 5.6 24.8z"/><linearGradient id="XMLID_11_" gradientUnits="userSpaceOnUse" x1="477.783" y1="188.502" x2="477.783" y2="219.495" gradientTransform="matrix(1 0 0 -1 0 562)"><stop offset="0" stop-opacity=".12"/><stop offset=".55" stop-opacity=".09"/><stop offset="1" stop-opacity=".02"/></linearGradient><path id="XMLID_773_" fill="url(#XMLID_11_)" d="M426 342.5h103.7v31H426z"/><path id="XMLID_573_" fill="#69f0ae" d="M429.5 345.6H526V368h-96.5z"/><linearGradient id="XMLID_12_" gradientUnits="userSpaceOnUse" x1="903.939" y1="195.299" x2="903.939" y2="228.402" gradientTransform="scale(1 -1) rotate(-32.358 56.743 381.565)"><stop offset="0" stop-color="gray" stop-opacity=".25"/><stop offset=".54" stop-color="gray" stop-opacity=".12"/><stop offset="1" stop-color="gray" stop-opacity=".1"/></linearGradient><path id="XMLID_400_" fill="url(#XMLID_12_)" d="M702.9 220.6l1.8.3-.2-.3h.1l-.2-.1-33.1-31.3-8 12.6-6.7 11.6 3.1.5-1.4 6.2z"/><path id="XMLID_274_" class="st7" d="M664.7 202.5l-6.1 10.6 44.7 7.3-28.8-20.1z"/><path id="XMLID_273_" opacity=".2" d="M664.7 202.5l-6.1 10.6 44.7 7.3-28.8-20.1z"/><path id="XMLID_263_" class="st7" d="M672 190.9l31.3 29.5-38.6-17.9z"/><path id="XMLID_259_" class="st7" d="M660.2 219.3l43 .8-40.1-14.2z"/><path id="XMLID_45_" class="st3" d="M427.7 319.3c-5.3 8.4-16.4 10.9-24.8 5.6l-35.6-23.1c-8.4-5.3-10.9-16.4-5.6-24.8 5.3-8.4 16.4-10.9 24.8-5.7l35.6 23.1c8.4 5.4 10.9 16.5 5.6 24.9z"/><path id="XMLID_295_" d="M517.8 229.1L500 211.3c-1.9-1.9-4.5-3-7.2-3h-43.4c-5.6 0-10.2 4.6-10.2 10.2V307c0 5.6 4.6 10.2 10.2 10.2h61.2c5.6 0 10.2-4.6 10.2-10.2v-70.6c0-2.8-1.1-5.4-3-7.3zm-4.8 4.8c.4.4.7 1 .9 1.6h-20.3v-20.3c.6.1 1.1.4 1.6.9l17.8 17.8zm-2.4 76.4h-61.2c-1.9 0-3.4-1.5-3.4-3.4v-88.5c0-1.9 1.5-3.4 3.4-3.4h37.4v22.1c0 2.8 2.3 5.1 5.1 5.1H514v64.6c0 2-1.6 3.5-3.4 3.5zm-24.9-49.5l6.3 6.3c.4.4.4 1 0 1.4l-23.9 23.9-6.4.9c-1.3.2-2.3-.9-2.2-2.2l.9-6.4 23.9-23.9c.5-.3 1.1-.3 1.4 0zm13.7.3l-3.5 3.5c-.4.4-1 .4-1.4 0l-6.3-6.3c-.4-.4-.4-1 0-1.4l3.5-3.5c1.3-1.3 3.3-1.3 4.5 0l3.1 3.1c1.4 1.3 1.4 3.3.1 4.6z" opacity=".7" fill="#144d66"/></svg>