<svg xmlns="http://www.w3.org/2000/svg" viewBox="0 0 228.5 261.4"><linearGradient id="a" gradientUnits="userSpaceOnUse" x1="8.017" y1="131.602" x2="1198.629" y2="131.602"><stop offset="0" stop-color="#0b6ede"/><stop offset="1" stop-color="#0ddaac"/></linearGradient><path d="M114 2.7L3 66.9V196l111.4 64.5L225 195.8V67.5L114 2.7zm-8 236.4l-90-52.3v-22l90 52v22.3zm0-40l-90-52.3v-22l90 52v22.3zm0-40l-90-52.3v-22l90 52v22.3zm7-57.3v21.7L24.3 71.6l18-11.1H150l-36-20.7v-21l91.9 52.4-16.6 10.2H79.6l33.4 20.4zm98 85.7l-19.8 11.3-50.3-45v74.3l-19.1 12-.1-103.3 20-12 50.2 46v-75l19-11v102.7z" fill="url(#a)"/></svg>