<svg xmlns="http://www.w3.org/2000/svg" viewBox="0 150 1200 300"><linearGradient id="a" gradientUnits="userSpaceOnUse" x1="7.62" y1="239.5" x2="1200.273" y2="239.5"><stop offset="0" stop-color="#0b6ede"/><stop offset=".161" stop-color="#0b77da"/><stop offset=".429" stop-color="#0c91ce"/><stop offset=".769" stop-color="#0cbabb"/><stop offset="1" stop-color="#0ddaac"/></linearGradient><path fill="url(#a)" d="M401 234h96v11h-96z"/><linearGradient id="b" gradientUnits="userSpaceOnUse" x1="7.62" y1="308.5" x2="1200.273" y2="308.5"><stop offset="0" stop-color="#0b6ede"/><stop offset=".161" stop-color="#0b77da"/><stop offset=".429" stop-color="#0c91ce"/><stop offset=".769" stop-color="#0cbabb"/><stop offset="1" stop-color="#0ddaac"/></linearGradient><path fill="url(#b)" d="M401 303h96v11h-96z"/><linearGradient id="c" gradientUnits="userSpaceOnUse" x1="7.62" y1="382.5" x2="1200.273" y2="382.5"><stop offset="0" stop-color="#0b6ede"/><stop offset=".161" stop-color="#0b77da"/><stop offset=".429" stop-color="#0c91ce"/><stop offset=".769" stop-color="#0cbabb"/><stop offset="1" stop-color="#0ddaac"/></linearGradient><path fill="url(#c)" d="M401 377h96v11h-96z"/><linearGradient id="d" gradientUnits="userSpaceOnUse" x1="7.62" y1="311" x2="1200.273" y2="311"><stop offset="0" stop-color="#0b6ede"/><stop offset=".161" stop-color="#0b77da"/><stop offset=".429" stop-color="#0c91ce"/><stop offset=".769" stop-color="#0cbabb"/><stop offset="1" stop-color="#0ddaac"/></linearGradient><path fill="url(#d)" d="M369 241.9V233H262v11h91l-93 135v10h112v-11h-95.8z"/><linearGradient id="e" gradientUnits="userSpaceOnUse" x1="7.62" y1="311" x2="1200.273" y2="311"><stop offset="0" stop-color="#0b6ede"/><stop offset=".161" stop-color="#0b77da"/><stop offset=".429" stop-color="#0c91ce"/><stop offset=".769" stop-color="#0cbabb"/><stop offset="1" stop-color="#0ddaac"/></linearGradient><path fill="url(#e)" d="M628 366.5L538.1 233H524v156h14V255.1L628 389h13V233h-13z"/><linearGradient id="f" gradientUnits="userSpaceOnUse" x1="7.62" y1="311" x2="1200.273" y2="311"><stop offset="0" stop-color="#0b6ede"/><stop offset=".161" stop-color="#0b77da"/><stop offset=".429" stop-color="#0c91ce"/><stop offset=".769" stop-color="#0cbabb"/><stop offset="1" stop-color="#0ddaac"/></linearGradient><path d="M771.7 245.3c-9.4-8.3-22.3-12.3-38.5-12.3H679v156h14v-63h39.8c17.2 0 30.3-4.3 39.4-12.3 9.1-8 13.6-19.4 13.6-34.1 0-14.5-4.7-26-14.1-34.3zm-9.2 60.1c-6.7 6.1-16.5 9.6-29.3 9.6H693v-71h41c12.3 0 21.8 3.3 28.5 9.7 6.7 6.4 10 15.2 10 26 .1 11-3.3 19.6-10 25.7z" fill="url(#f)"/><linearGradient id="g" gradientUnits="userSpaceOnUse" x1="7.62" y1="310.788" x2="1200.273" y2="310.788"><stop offset="0" stop-color="#0b6ede"/><stop offset=".161" stop-color="#0b77da"/><stop offset=".429" stop-color="#0c91ce"/><stop offset=".769" stop-color="#0cbabb"/><stop offset="1" stop-color="#0ddaac"/></linearGradient><path d="M900.7 239.1c-9.2-5.8-19.8-8.7-31.9-8.7s-22.7 3-31.9 8.9-16.8 14.4-21.9 25.4c-5 11-8 23.6-8 37.9v16.1c0 22.2 6.1 39.8 17.3 52.9 11.2 13.1 26.2 19.6 44.5 19.6 12.1 0 22.9-2.9 32.1-8.8 9.2-5.9 16-14.3 21-25.1 5-10.9 7.1-23.5 7.1-37.9v-18.7c0-14-2.4-26.2-7.4-36.8-5-10.8-11.7-19-20.9-24.8zm15.3 79.7c0 19.1-3.9 34-12.3 44.7-8.4 10.7-19.9 16.1-34.9 16.1-14.8 0-26.4-5.4-35-16.3s-12.8-25.5-12.8-44V303c0-19.2 4.4-34.1 13-44.8 8.6-10.7 20.2-16.1 34.8-16.1 14.8 0 26.2 5.3 34.7 16 8.5 10.7 12.5 25.4 12.5 44.3v16.4z" fill="url(#g)"/><linearGradient id="h" gradientUnits="userSpaceOnUse" x1="7.62" y1="311" x2="1200.273" y2="311"><stop offset="0" stop-color="#0b6ede"/><stop offset=".161" stop-color="#0b77da"/><stop offset=".429" stop-color="#0c91ce"/><stop offset=".769" stop-color="#0cbabb"/><stop offset="1" stop-color="#0ddaac"/></linearGradient><path d="M1056.9 305.1c5.9-7.7 8.8-16.5 8.8-26.5 0-14.5-4.7-25.6-14.1-33.7-9.4-8.1-22.4-11.9-39.1-11.9H961v156h14v-65h45.5l37.8 65h13.7v-1.4l-38.9-66.6c9.9-2.9 17.9-8.2 23.8-15.9zm-41.4 7.9H975v-69h37.3c12.7 0 22.5 2.9 29.5 9s10.5 14.6 10.5 25.7c0 10-3.4 18.4-10.1 24.7-6.7 6.3-15.6 9.6-26.7 9.6z" fill="url(#h)"/><linearGradient id="i" gradientUnits="userSpaceOnUse" x1="7.62" y1="311" x2="1200.273" y2="311"><stop offset="0" stop-color="#0b6ede"/><stop offset=".161" stop-color="#0b77da"/><stop offset=".429" stop-color="#0c91ce"/><stop offset=".769" stop-color="#0cbabb"/><stop offset="1" stop-color="#0ddaac"/></linearGradient><path fill="url(#i)" d="M1077 233v11h54v145h13V244h54v-11z"/><linearGradient id="j" gradientUnits="userSpaceOnUse" x1="7.992" y1="311.792" x2="1198.604" y2="311.792"><stop offset="0" stop-color="#0b6ede"/><stop offset="1" stop-color="#0ddaac"/></linearGradient><path d="M114 182.9L3 247.1v129.1l111.4 64.5L225 376V247.7l-111-64.8zm-8 236.4L16 367v-22l90 52v22.3zm0-40L16 327v-22l90 52v22.3zm0-40L16 287v-22l90 52v22.3zm7-57.3v21.7l-88.8-51.8L42 241h107.7L114 220v-21l91.8 52.6L189 262H79.3l33.7 20zm98 85.7L191.3 379 141 334v74.3l-19.3 12c0-1-.2-103.3-.2-103.3l20.1-12 50.3 46v-75l19-11v102.7z" fill="url(#j)"/></svg>