<?xml version="1.0" encoding="utf-8"?>
<!-- Generator: Adobe Illustrator 19.0.0, SVG Export Plug-In . SVG Version: 6.00 Build 0)  -->
<svg version="1.1" id="Layer_1" xmlns="http://www.w3.org/2000/svg" xmlns:xlink="http://www.w3.org/1999/xlink" x="0px" y="0px"
	 viewBox="0 0 960 179" style="enable-background:new 0 0 960 179;" xml:space="preserve">
<style type="text/css">
	.st0{fill:#ACC8EA;}
</style>
<path id="XMLID_3_" class="st0" d="M960,43V0.8c-23.3,13.9-43.9,21.5-58.6,26c-3,0.9,0.5-0.3-45,10.1c-18,4.1-40.6,9.1-64.2,9
	c-10.5-0.1-17.4-0.9-45-4.5c-68.2-9-70.2-10-85.5-11.3c-38.6-3.3-68.9-0.8-77.7,0c-47.9,4.4-72.7,3.9-103,8.4
	c-10.1,1.5-18.5,2.9-24.2,4c-5.4,0.8-13.6,1.9-23.6,3.4C362.3,56,318.2,63.2,306,65c-35.3,5.2-89.4,7.5-168.9-6.8
	C104.9,51.2,55.4,36.3,0,0.8V10c0,35.6,0.6,71.1,0.9,106.7c0.3,0.1,0.5,0.2,0.7,0.2c-0.5,0.3-0.7,0.5-1.6,0.8v22.1
	c20.8,8.4,62.4,13.6,94,15.1c87.2,4.1,123-18.5,196.6-31.2c14.2-1.2,28.2-3.4,46-5.9c61.6-5.2,109.8,1.7,173.8,10.7
	c129.5,18.4,128.3,43.1,227.5,47.5c88.4,3.9,148.2-13,197.2-26.8c8.1-2.3,17.8-4.8,24.8-7.3V43z"/>
</svg>
